运行 java测试 案例 com.example.demo.FFmpegJNITest
sbc run -t -v /home/user/JAVA-TEST/java-rtf-test/ffmpeg/files:/tmp@/home/user/JAVA-TEST/java-rtf-test/rmi.sh:/opt/app/lib/logback-classic-1.2.3.jar@/home/user/JAVA-TEST/java-rtf-test/test-classes/com:/opt/app/test-classes/com -p docker.bplatform.demo/java_rtf_lx:2.1 docker.bplatform.demo/java_rtf_test_all:1.0  /opt/app/runTest com.example.demo.FFmpegJNITest encode_video /tmp/02.yuv /tmp/02.mpg
TEST_DIR=/opt/app
/usr/lib/jvm/java-11-openjdk-mips64el/bin/java -classpath /opt/app/lib/*:/opt/app/classes:/opt/app/test-classes com.example.demo.FFmpegJNITest encode_video /tmp/02.yuv /tmp/02.mpg
OpenJDK 64-Bit Zero VM warning: You have loaded library /usr/lib/libffmpeg-jni.so which might have disabled stack guard. The VM will try to fix the stack guard now.
It's highly recommended that you fix the library with 'execstack -c <libfile>', or link it with '-z noexecstack'.
视频编码
Output #0, mpeg, to '/tmp/02.mpg':
    Stream #0:0: Video: mpeg1video, yuv420p, 640x480, q=2-31, 400 kb/s, 25 tbn
[48;5;0m[38;5;213m[mpeg @ 0x7fffe86d22b0] [0m[48;5;0m[38;5;226mVBV buffer size not set, using default size of 230KB
If you want the mpeg file to be compliant to some specification
Like DVD, VCD or others, make sure you set the correct buffer size
[0mpts:0 pts_time:0 dts:-3600 dts_time:-0.04 duration:0 duration_time:0 stream_index:0
pts:3600 pts_time:0.04 dts:0 dts_time:0 duration:0 duration_time:0 stream_index:0
[48;5;0m[38;5;213m[mpeg @ 0x7fffe86d22b0] [0m[48;5;0m[38;5;196mbuffer underflow st=0 bufi=26033 size=36751
[0m[48;5;0m[38;5;213m[mpeg @ 0x7fffe86d22b0] [0m[48;5;0m[38;5;196mbuffer underflow st=0 bufi=28074 size=36751
[0m[48;5;0m[38;5;213m[mpeg @ 0x7fffe86d22b0] [0m[48;5;0m[38;5;196mbuffer underflow st=0 bufi=30115 size=36751
[0m[48;5;0m[38;5;213m[mpeg @ 0x7fffe86d22b0] [0m[48;5;0m[38;5;196mbuffer underflow st=0 bufi=32156 size=36751
[0m[48;5;0m[38;5;213m[mpeg @ 0x7fffe86d22b0] [0m[48;5;0m[38;5;196mbuffer underflow st=0 bufi=34197 size=36751
[0m[48;5;0m[38;5;213m[mpeg @ 0x7fffe86d22b0] [0m[48;5;0m[38;5;196mbuffer underflow st=0 bufi=36238 size=36751
[0mpts:7200 pts_time:0.08 dts:3600 dts_time:0.04 duration:0 duration_time:0 stream_index:0
[48;5;0m[38;5;213m[mpeg @ 0x7fffe86d22b0] [0m[48;5;0m[38;5;196mbuffer underflow st=0 bufi=1519 size=8687
[0m[48;5;0m[38;5;213m[mpeg @ 0x7fffe86d22b0] [0m[48;5;0m[38;5;196mbuffer underflow st=0 bufi=3560 size=8687
[0m[48;5;0m[38;5;213m[mpeg @ 0x7fffe86d22b0] [0m[48;5;0m[38;5;196mbuffer underflow st=0 bufi=5601 size=8687
[0m[48;5;0m[38;5;213m[mpeg @ 0x7fffe86d22b0] [0m[48;5;0m[38;5;196mbuffer underflow st=0 bufi=7642 size=8687
[0mpts:10800 pts_time:0.12 dts:7200 dts_time:0.08 duration:0 duration_time:0 stream_index:0
[48;5;0m[38;5;213m[mpeg @ 0x7fffe86d22b0] [0m[48;5;0m[38;5;196mbuffer underflow st=0 bufi=987 size=8167
[0m[48;5;0m[38;5;213m[mpeg @ 0x7fffe86d22b0] [0m[48;5;0m[38;5;196mbuffer underflow st=0 bufi=3028 size=8167
[0m[48;5;0m[38;5;213m[mpeg @ 0x7fffe86d22b0] [0m[48;5;0m[38;5;196mbuffer underflow st=0 bufi=5069 size=8167
[0m[48;5;0m[38;5;213m[mpeg @ 0x7fffe86d22b0] [0m[48;5;0m[38;5;196mbuffer underflow st=0 bufi=7110 size=8167
[0mpts:14400 pts_time:0.16 dts:10800 dts_time:0.12 duration:0 duration_time:0 stream_index:0
[48;5;0m[38;5;213m[mpeg @ 0x7fffe86d22b0] [0m[48;5;0m[38;5;196mbuffer underflow st=0 bufi=975 size=7112
[0m[48;5;0m[38;5;213m[mpeg @ 0x7fffe86d22b0] [0m[48;5;0m[38;5;196mbuffer underflow st=0 bufi=3016 size=7112
[0m[48;5;0m[38;5;213m[mpeg @ 0x7fffe86d22b0] [0m[48;5;0m[38;5;196mbuffer underflow st=0 bufi=5057 size=7112
[0m[48;5;0m[38;5;213m[mpeg @ 0x7fffe86d22b0] [0m[48;5;0m[38;5;196mbuffer underflow st=0 bufi=7098 size=7112
[0mpts:18000 pts_time:0.2 dts:14400 dts_time:0.16 duration:0 duration_time:0 stream_index:0
[48;5;0m[38;5;213m[mpeg @ 0x7fffe86d22b0] [0m[48;5;0m[38;5;196mbuffer underflow st=0 bufi=2018 size=7298
[0m[48;5;0m[38;5;213m[mpeg @ 0x7fffe86d22b0] [0m[48;5;0m[38;5;196mbuffer underflow st=0 bufi=4059 size=7298
[0m[48;5;0m[38;5;213m[mpeg @ 0x7fffe86d22b0] [0m[48;5;0m[38;5;196mbuffer underflow st=0 bufi=6100 size=7298
[0mpts:21600 pts_time:0.24 dts:18000 dts_time:0.2 duration:0 duration_time:0 stream_index:0
[48;5;0m[38;5;213m[mpeg @ 0x7fffe86d22b0] [0m[48;5;0m[38;5;196mbuffer underflow st=0 bufi=834 size=4139
[0m[48;5;0m[38;5;213m[mpeg @ 0x7fffe86d22b0] [0m[48;5;0m[38;5;196mbuffer underflow st=0 bufi=2875 size=4139
[0mpts:25200 pts_time:0.28 dts:21600 dts_time:0.24 duration:0 duration_time:0 stream_index:0
[48;5;0m[38;5;213m[mpeg @ 0x7fffe86d22b0] [0m[48;5;0m[38;5;196mbuffer underflow st=0 bufi=768 size=6175
[0m[48;5;0m[38;5;213m[mpeg @ 0x7fffe86d22b0] [0m[48;5;0m[38;5;196mbuffer underflow st=0 bufi=2809 size=6175
[0m[48;5;0m[38;5;213m[mpeg @ 0x7fffe86d22b0] [0m[48;5;0m[38;5;196mbuffer underflow st=0 bufi=4850 size=6175
[0mpts:28800 pts_time:0.32 dts:25200 dts_time:0.28 duration:0 duration_time:0 stream_index:0
[48;5;0m[38;5;213m[mpeg @ 0x7fffe86d22b0] [0m[48;5;0m[38;5;196mbuffer underflow st=0 bufi=707 size=3984
[0m[48;5;0m[38;5;213m[mpeg @ 0x7fffe86d22b0] [0m[48;5;0m[38;5;196mbuffer underflow st=0 bufi=2748 size=3984
[0mpts:32400 pts_time:0.36 dts:28800 dts_time:0.32 duration:0 duration_time:0 stream_index:0
[48;5;0m[38;5;213m[mpeg @ 0x7fffe86d22b0] [0m[48;5;0m[38;5;196mbuffer underflow st=0 bufi=796 size=3928
[0m[48;5;0m[38;5;213m[mpeg @ 0x7fffe86d22b0] [0m[48;5;0m[38;5;196mbuffer underflow st=0 bufi=2837 size=3928
[0mpts:36000 pts_time:0.4 dts:32400 dts_time:0.36 duration:0 duration_time:0 stream_index:0
[48;5;0m[38;5;213m[mpeg @ 0x7fffe86d22b0] [0m[48;5;0m[38;5;196mbuffer underflow st=0 bufi=941 size=5139
[0m[48;5;0m[38;5;213m[mpeg @ 0x7fffe86d22b0] [0m[48;5;0m[38;5;196mbuffer underflow st=0 bufi=2982 size=5139
[0m[48;5;0m[38;5;213m[mpeg @ 0x7fffe86d22b0] [0m[48;5;0m[38;5;196mbuffer underflow st=0 bufi=5023 size=5139
[0mpts:39600 pts_time:0.44 dts:36000 dts_time:0.4 duration:0 duration_time:0 stream_index:0
[48;5;0m[38;5;213m[mpeg @ 0x7fffe86d22b0] [0m[48;5;0m[38;5;196mbuffer underflow st=0 bufi=1916 size=4036
[0m[48;5;0m[38;5;213m[mpeg @ 0x7fffe86d22b0] [0m[48;5;0m[38;5;196mbuffer underflow st=0 bufi=3957 size=4036
[0mpts:43200 pts_time:0.48 dts:39600 dts_time:0.44 duration:0 duration_time:0 stream_index:0
[48;5;0m[38;5;213m[mpeg @ 0x7fffe86d22b0] [0m[48;5;0m[38;5;196mbuffer underflow st=0 bufi=1953 size=3147
[0mpts:46800 pts_time:0.52 dts:43200 dts_time:0.48 duration:0 duration_time:0 stream_index:0
[48;5;0m[38;5;213m[mpeg @ 0x7fffe86d22b0] [0m[48;5;0m[38;5;196mbuffer underflow st=0 bufi=838 size=16185
[0m[48;5;0m[38;5;213m[mpeg @ 0x7fffe86d22b0] [0m[48;5;0m[38;5;196mbuffer underflow st=0 bufi=2879 size=16185
[0m[48;5;0m[38;5;213m[mpeg @ 0x7fffe86d22b0] [0m[48;5;0m[38;5;196mbuffer underflow st=0 bufi=4908 size=16185
[0m[48;5;0m[38;5;213m[mpeg @ 0x7fffe86d22b0] [0m[48;5;0m[38;5;196mbuffer underflow st=0 bufi=6949 size=16185
[0m[48;5;0m[38;5;213m[mpeg @ 0x7fffe86d22b0] [0m[48;5;0m[38;5;196mbuffer underflow st=0 bufi=8990 size=16185
[0m[48;5;0m[38;5;213m[mpeg @ 0x7fffe86d22b0] [0m[48;5;0m[38;5;196mbuffer underflow st=0 bufi=11031 size=16185
[0m[48;5;0m[38;5;213m[mpeg @ 0x7fffe86d22b0] [0m[48;5;0m[38;5;196mbuffer underflow st=0 bufi=13072 size=16185
[0m[48;5;0m[38;5;213m[mpeg @ 0x7fffe86d22b0] [0m[48;5;0m[38;5;196mbuffer underflow st=0 bufi=15113 size=16185
[0mpts:50400 pts_time:0.56 dts:46800 dts_time:0.52 duration:0 duration_time:0 stream_index:0
[48;5;0m[38;5;213m[mpeg @ 0x7fffe86d22b0] [0m[48;5;0m[38;5;196mbuffer underflow st=0 bufi=960 size=2572
[0mpts:54000 pts_time:0.6 dts:50400 dts_time:0.56 duration:0 duration_time:0 stream_index:0
[48;5;0m[38;5;213m[mpeg @ 0x7fffe86d22b0] [0m[48;5;0m[38;5;196mbuffer underflow st=0 bufi=420 size=3999
[0m[48;5;0m[38;5;213m[mpeg @ 0x7fffe86d22b0] [0m[48;5;0m[38;5;196mbuffer underflow st=0 bufi=2461 size=3999
[0mpts:57600 pts_time:0.64 dts:54000 dts_time:0.6 duration:0 duration_time:0 stream_index:0
[48;5;0m[38;5;213m[mpeg @ 0x7fffe86d22b0] [0m[48;5;0m[38;5;196mbuffer underflow st=0 bufi=494 size=2258
[0mpts:61200 pts_time:0.68 dts:57600 dts_time:0.64 duration:0 duration_time:0 stream_index:0
[48;5;0m[38;5;213m[mpeg @ 0x7fffe86d22b0] [0m[48;5;0m[38;5;196mbuffer underflow st=0 bufi=268 size=3659
[0m[48;5;0m[38;5;213m[mpeg @ 0x7fffe86d22b0] [0m[48;5;0m[38;5;196mbuffer underflow st=0 bufi=2309 size=3659
[0mpts:64800 pts_time:0.72 dts:61200 dts_time:0.68 duration:0 duration_time:0 stream_index:0
[48;5;0m[38;5;213m[mpeg @ 0x7fffe86d22b0] [0m[48;5;0m[38;5;196mbuffer underflow st=0 bufi=682 size=3985
[0m[48;5;0m[38;5;213m[mpeg @ 0x7fffe86d22b0] [0m[48;5;0m[38;5;196mbuffer underflow st=0 bufi=2723 size=3985
[0mpts:68400 pts_time:0.76 dts:64800 dts_time:0.72 duration:0 duration_time:0 stream_index:0
[48;5;0m[38;5;213m[mpeg @ 0x7fffe86d22b0] [0m[48;5;0m[38;5;196mbuffer underflow st=0 bufi=770 size=2639
[0mpts:72000 pts_time:0.8 dts:68400 dts_time:0.76 duration:0 duration_time:0 stream_index:0
[48;5;0m[38;5;213m[mpeg @ 0x7fffe86d22b0] [0m[48;5;0m[38;5;196mbuffer underflow st=0 bufi=163 size=2019
[0mpts:75600 pts_time:0.84 dts:72000 dts_time:0.8 duration:0 duration_time:0 stream_index:0
[48;5;0m[38;5;213m[mpeg @ 0x7fffe86d22b0] [0m[48;5;0m[38;5;196mbuffer underflow st=0 bufi=176 size=4031
[0m[48;5;0m[38;5;213m[mpeg @ 0x7fffe86d22b0] [0m[48;5;0m[38;5;196mbuffer underflow st=0 bufi=2217 size=4031
[0mpts:79200 pts_time:0.88 dts:75600 dts_time:0.84 duration:0 duration_time:0 stream_index:0
[48;5;0m[38;5;213m[mpeg @ 0x7fffe86d22b0] [0m[48;5;0m[38;5;196mbuffer underflow st=0 bufi=218 size=3045
[0m[48;5;0m[38;5;213m[mpeg @ 0x7fffe86d22b0] [0m[48;5;0m[38;5;196mbuffer underflow st=0 bufi=2259 size=3045
[0mpts:82800 pts_time:0.92 dts:79200 dts_time:0.88 duration:0 duration_time:0 stream_index:0
[48;5;0m[38;5;213m[mpeg @ 0x7fffe86d22b0] [0m[48;5;0m[38;5;196mbuffer underflow st=0 bufi=1246 size=2641
[0mpts:86400 pts_time:0.96 dts:82800 dts_time:0.92 duration:0 duration_time:0 stream_index:0
[48;5;0m[38;5;213m[mpeg @ 0x7fffe86d22b0] [0m[48;5;0m[38;5;196mbuffer underflow st=0 bufi=637 size=2685
[0m[48;5;0m[38;5;213m[mpeg @ 0x7fffe86d22b0] [0m[48;5;0m[38;5;196mbuffer underflow st=0 bufi=2678 size=2685
[0mpts:90000 pts_time:1 dts:86400 dts_time:0.96 duration:0 duration_time:0 stream_index:0
[48;5;0m[38;5;213m[mpeg @ 0x7fffe86d22b0] [0m[48;5;0m[38;5;196mbuffer underflow st=0 bufi=2025 size=13374
[0m[48;5;0m[38;5;213m[mpeg @ 0x7fffe86d22b0] [0m[48;5;0m[38;5;196mbuffer underflow st=0 bufi=4066 size=13374
[0m[48;5;0m[38;5;213m[mpeg @ 0x7fffe86d22b0] [0m[48;5;0m[38;5;196mbuffer underflow st=0 bufi=6107 size=13374
[0m[48;5;0m[38;5;213m[mpeg @ 0x7fffe86d22b0] [0m[48;5;0m[38;5;196mbuffer underflow st=0 bufi=8148 size=13374
[0m[48;5;0m[38;5;213m[mpeg @ 0x7fffe86d22b0] [0m[48;5;0m[38;5;196mbuffer underflow st=0 bufi=10189 size=13374
[0m[48;5;0m[38;5;213m[mpeg @ 0x7fffe86d22b0] [0m[48;5;0m[38;5;196mbuffer underflow st=0 bufi=12230 size=13374
[0mpts:93600 pts_time:1.04 dts:90000 dts_time:1 duration:0 duration_time:0 stream_index:0
[48;5;0m[38;5;213m[mpeg @ 0x7fffe86d22b0] [0m[48;5;0m[38;5;196mbuffer underflow st=0 bufi=888 size=3039
[0m[48;5;0m[38;5;213m[mpeg @ 0x7fffe86d22b0] [0m[48;5;0m[38;5;196mbuffer underflow st=0 bufi=2929 size=3039
[0mpts:97200 pts_time:1.08 dts:93600 dts_time:1.04 duration:0 duration_time:0 stream_index:0
[48;5;0m[38;5;213m[mpeg @ 0x7fffe86d22b0] [0m[48;5;0m[38;5;196mbuffer underflow st=0 bufi=1922 size=2373
[0mpts:100800 pts_time:1.12 dts:97200 dts_time:1.08 duration:0 duration_time:0 stream_index:0
[48;5;0m[38;5;213m[mpeg @ 0x7fffe86d22b0] [0m[48;5;0m[38;5;196mbuffer underflow st=0 bufi=1581 size=3929
[0m[48;5;0m[38;5;213m[mpeg @ 0x7fffe86d22b0] [0m[48;5;0m[38;5;196mbuffer underflow st=0 bufi=3622 size=3929
[0mpts:104400 pts_time:1.16 dts:100800 dts_time:1.12 duration:0 duration_time:0 stream_index:0
[48;5;0m[38;5;213m[mpeg @ 0x7fffe86d22b0] [0m[48;5;0m[38;5;196mbuffer underflow st=0 bufi=1725 size=2815
[0mpts:108000 pts_time:1.2 dts:104400 dts_time:1.16 duration:0 duration_time:0 stream_index:0
[48;5;0m[38;5;213m[mpeg @ 0x7fffe86d22b0] [0m[48;5;0m[38;5;196mbuffer underflow st=0 bufi=942 size=2095
[0mpts:111600 pts_time:1.24 dts:108000 dts_time:1.2 duration:0 duration_time:0 stream_index:0
[48;5;0m[38;5;213m[mpeg @ 0x7fffe86d22b0] [0m[48;5;0m[38;5;196mbuffer underflow st=0 bufi=879 size=3589
[0m[48;5;0m[38;5;213m[mpeg @ 0x7fffe86d22b0] [0m[48;5;0m[38;5;196mbuffer underflow st=0 bufi=2920 size=3589
[0mpts:115200 pts_time:1.28 dts:111600 dts_time:1.24 duration:0 duration_time:0 stream_index:0
[48;5;0m[38;5;213m[mpeg @ 0x7fffe86d22b0] [0m[48;5;0m[38;5;196mbuffer underflow st=0 bufi=1363 size=2164
[0mpts:118800 pts_time:1.32 dts:115200 dts_time:1.28 duration:0 duration_time:0 stream_index:0
[48;5;0m[38;5;213m[mpeg @ 0x7fffe86d22b0] [0m[48;5;0m[38;5;196mbuffer underflow st=0 bufi=1231 size=3139
[0mpts:122400 pts_time:1.36 dts:118800 dts_time:1.32 duration:0 duration_time:0 stream_index:0
[48;5;0m[38;5;213m[mpeg @ 0x7fffe86d22b0] [0m[48;5;0m[38;5;196mbuffer underflow st=0 bufi=124 size=2687
[0m[48;5;0m[38;5;213m[mpeg @ 0x7fffe86d22b0] [0m[48;5;0m[38;5;196mbuffer underflow st=0 bufi=2165 size=2687
[0mpts:126000 pts_time:1.4 dts:122400 dts_time:1.36 duration:0 duration_time:0 stream_index:0
[48;5;0m[38;5;213m[mpeg @ 0x7fffe86d22b0] [0m[48;5;0m[38;5;196mbuffer underflow st=0 bufi=1510 size=2261
[0mpts:129600 pts_time:1.44 dts:126000 dts_time:1.4 duration:0 duration_time:0 stream_index:0
[48;5;0m[38;5;213m[mpeg @ 0x7fffe86d22b0] [0m[48;5;0m[38;5;196mbuffer underflow st=0 bufi=1281 size=3434
[0m[48;5;0m[38;5;213m[mpeg @ 0x7fffe86d22b0] [0m[48;5;0m[38;5;196mbuffer underflow st=0 bufi=3322 size=3434
[0mpts:133200 pts_time:1.48 dts:129600 dts_time:1.44 duration:0 duration_time:0 stream_index:0
[48;5;0m[38;5;213m[mpeg @ 0x7fffe86d22b0] [0m[48;5;0m[38;5;196mbuffer underflow st=0 bufi=1920 size=10718
[0m[48;5;0m[38;5;213m[mpeg @ 0x7fffe86d22b0] [0m[48;5;0m[38;5;196mbuffer underflow st=0 bufi=3961 size=10718
[0m[48;5;0m[38;5;213m[mpeg @ 0x7fffe86d22b0] [0m[48;5;0m[38;5;196mbuffer underflow st=0 bufi=6002 size=10718
[0m[48;5;0m[38;5;213m[mpeg @ 0x7fffe86d22b0] [0m[48;5;0m[38;5;196mbuffer underflow st=0 bufi=8043 size=10718
[0m[48;5;0m[38;5;213m[mpeg @ 0x7fffe86d22b0] [0m[48;5;0m[38;5;196mbuffer underflow st=0 bufi=10084 size=10718
[0mpts:136800 pts_time:1.52 dts:133200 dts_time:1.48 duration:0 duration_time:0 stream_index:0
[48;5;0m[38;5;213m[mpeg @ 0x7fffe86d22b0] [0m[48;5;0m[38;5;196mbuffer underflow st=0 bufi=1398 size=2497
[0mpts:140400 pts_time:1.56 dts:136800 dts_time:1.52 duration:0 duration_time:0 stream_index:0
[48;5;0m[38;5;213m[mpeg @ 0x7fffe86d22b0] [0m[48;5;0m[38;5;196mbuffer underflow st=0 bufi=933 size=2484
[0mpts:144000 pts_time:1.6 dts:140400 dts_time:1.56 duration:0 duration_time:0 stream_index:0
[48;5;0m[38;5;213m[mpeg @ 0x7fffe86d22b0] [0m[48;5;0m[38;5;196mbuffer underflow st=0 bufi=469 size=2430
[0mpts:147600 pts_time:1.64 dts:144000 dts_time:1.6 duration:0 duration_time:0 stream_index:0
[48;5;0m[38;5;213m[mpeg @ 0x7fffe86d22b0] [0m[48;5;0m[38;5;196mbuffer underflow st=0 bufi=71 size=1802
[0mpts:151200 pts_time:1.68 dts:147600 dts_time:1.64 duration:0 duration_time:0 stream_index:0
[48;5;0m[38;5;213m[mpeg @ 0x7fffe86d22b0] [0m[48;5;0m[38;5;196mbuffer underflow st=0 bufi=301 size=2021
[0mpts:154800 pts_time:1.72 dts:151200 dts_time:1.68 duration:0 duration_time:0 stream_index:0
[48;5;0m[38;5;213m[mpeg @ 0x7fffe86d22b0] [0m[48;5;0m[38;5;196mbuffer underflow st=0 bufi=312 size=2811
[0m[48;5;0m[38;5;213m[mpeg @ 0x7fffe86d22b0] [0m[48;5;0m[38;5;196mbuffer underflow st=0 bufi=2353 size=2811
[0mpts:158400 pts_time:1.76 dts:154800 dts_time:1.72 duration:0 duration_time:0 stream_index:0
[48;5;0m[38;5;213m[mpeg @ 0x7fffe86d22b0] [0m[48;5;0m[38;5;196mbuffer underflow st=0 bufi=1574 size=2642
[0mpts:162000 pts_time:1.8 dts:158400 dts_time:1.76 duration:0 duration_time:0 stream_index:0
[48;5;0m[38;5;213m[mpeg @ 0x7fffe86d22b0] [0m[48;5;0m[38;5;196mbuffer underflow st=0 bufi=964 size=1969
[0mpts:165600 pts_time:1.84 dts:162000 dts_time:1.8 duration:0 duration_time:0 stream_index:0
[48;5;0m[38;5;213m[mpeg @ 0x7fffe86d22b0] [0m[48;5;0m[38;5;196mbuffer underflow st=0 bufi=1027 size=2468
[0mpts:169200 pts_time:1.88 dts:165600 dts_time:1.84 duration:0 duration_time:0 stream_index:0
[48;5;0m[38;5;213m[mpeg @ 0x7fffe86d22b0] [0m[48;5;0m[38;5;196mbuffer underflow st=0 bufi=591 size=1992
[0mpts:172800 pts_time:1.92 dts:169200 dts_time:1.88 duration:0 duration_time:0 stream_index:0
[48;5;0m[38;5;213m[mpeg @ 0x7fffe86d22b0] [0m[48;5;0m[38;5;196mbuffer underflow st=0 bufi=631 size=1496
[0mpts:176400 pts_time:1.96 dts:172800 dts_time:1.92 duration:0 duration_time:0 stream_index:0
[48;5;0m[38;5;213m[mpeg @ 0x7fffe86d22b0] [0m[48;5;0m[38;5;196mbuffer underflow st=0 bufi=1167 size=10431
[0m[48;5;0m[38;5;213m[mpeg @ 0x7fffe86d22b0] [0m[48;5;0m[38;5;196mbuffer underflow st=0 bufi=3208 size=10431
[0m[48;5;0m[38;5;213m[mpeg @ 0x7fffe86d22b0] [0m[48;5;0m[38;5;196mbuffer underflow st=0 bufi=5249 size=10431
[0m[48;5;0m[38;5;213m[mpeg @ 0x7fffe86d22b0] [0m[48;5;0m[38;5;196mbuffer underflow st=0 bufi=7290 size=10431
[0m[48;5;0m[38;5;213m[mpeg @ 0x7fffe86d22b0] [0m[48;5;0m[38;5;196mbuffer underflow st=0 bufi=9331 size=10431
[0mpts:180000 pts_time:2 dts:176400 dts_time:1.96 duration:0 duration_time:0 stream_index:0
[48;5;0m[38;5;213m[mpeg @ 0x7fffe86d22b0] [0m[48;5;0m[38;5;196mbuffer underflow st=0 bufi=932 size=1904
[0mpts:183600 pts_time:2.04 dts:180000 dts_time:2 duration:0 duration_time:0 stream_index:0
[48;5;0m[38;5;213m[mpeg @ 0x7fffe86d22b0] [0m[48;5;0m[38;5;196mbuffer underflow st=0 bufi=1060 size=2318
[0mpts:187200 pts_time:2.08 dts:183600 dts_time:2.04 duration:0 duration_time:0 stream_index:0
[48;5;0m[38;5;213m[mpeg @ 0x7fffe86d22b0] [0m[48;5;0m[38;5;196mbuffer underflow st=0 bufi=774 size=2505
[0mpts:190800 pts_time:2.12 dts:187200 dts_time:2.08 duration:0 duration_time:0 stream_index:0
[48;5;0m[38;5;213m[mpeg @ 0x7fffe86d22b0] [0m[48;5;0m[38;5;196mbuffer underflow st=0 bufi=301 size=2085
[0mpts:194400 pts_time:2.16 dts:190800 dts_time:2.12 duration:0 duration_time:0 stream_index:0
[48;5;0m[38;5;213m[mpeg @ 0x7fffe86d22b0] [0m[48;5;0m[38;5;196mbuffer underflow st=0 bufi=248 size=1810
[0mpts:198000 pts_time:2.2 dts:194400 dts_time:2.16 duration:0 duration_time:0 stream_index:0
[48;5;0m[38;5;213m[mpeg @ 0x7fffe86d22b0] [0m[48;5;0m[38;5;196mbuffer underflow st=0 bufi=470 size=2825
[0m[48;5;0m[38;5;213m[mpeg @ 0x7fffe86d22b0] [0m[48;5;0m[38;5;196mbuffer underflow st=0 bufi=2511 size=2825
[0mpts:201600 pts_time:2.24 dts:198000 dts_time:2.2 duration:0 duration_time:0 stream_index:0
[48;5;0m[38;5;213m[mpeg @ 0x7fffe86d22b0] [0m[48;5;0m[38;5;196mbuffer underflow st=0 bufi=1718 size=2147
[0mpts:205200 pts_time:2.28 dts:201600 dts_time:2.24 duration:0 duration_time:0 stream_index:0
pts:208800 pts_time:2.32 dts:205200 dts_time:2.28 duration:0 duration_time:0 stream_index:0
[48;5;0m[38;5;213m[mpeg @ 0x7fffe86d22b0] [0m[48;5;0m[38;5;196mbuffer underflow st=0 bufi=3 size=2406
[0m[48;5;0m[38;5;213m[mpeg @ 0x7fffe86d22b0] [0m[48;5;0m[38;5;196mbuffer underflow st=0 bufi=2044 size=2406
[0mpts:212400 pts_time:2.36 dts:208800 dts_time:2.32 duration:0 duration_time:0 stream_index:0
pts:216000 pts_time:2.4 dts:212400 dts_time:2.36 duration:0 duration_time:0 stream_index:0
[48;5;0m[38;5;213m[mpeg @ 0x7fffe86d22b0] [0m[48;5;0m[38;5;196mbuffer underflow st=0 bufi=210 size=2588
[0m[48;5;0m[38;5;213m[mpeg @ 0x7fffe86d22b0] [0m[48;5;0m[38;5;196mbuffer underflow st=0 bufi=2251 size=2588
[0mpts:219600 pts_time:2.44 dts:216000 dts_time:2.4 duration:0 duration_time:0 stream_index:0
[48;5;0m[38;5;213m[mpeg @ 0x7fffe86d22b0] [0m[48;5;0m[38;5;196mbuffer underflow st=0 bufi=1695 size=9921
[0m[48;5;0m[38;5;213m[mpeg @ 0x7fffe86d22b0] [0m[48;5;0m[38;5;196mbuffer underflow st=0 bufi=3736 size=9921
[0m[48;5;0m[38;5;213m[mpeg @ 0x7fffe86d22b0] [0m[48;5;0m[38;5;196mbuffer underflow st=0 bufi=5777 size=9921
[0m[48;5;0m[38;5;213m[mpeg @ 0x7fffe86d22b0] [0m[48;5;0m[38;5;196mbuffer underflow st=0 bufi=7818 size=9921
[0m[48;5;0m[38;5;213m[mpeg @ 0x7fffe86d22b0] [0m[48;5;0m[38;5;196mbuffer underflow st=0 bufi=9859 size=9921
[0mpts:223200 pts_time:2.48 dts:219600 dts_time:2.44 duration:0 duration_time:0 stream_index:0
[48;5;0m[38;5;213m[mpeg @ 0x7fffe86d22b0] [0m[48;5;0m[38;5;196mbuffer underflow st=0 bufi=1970 size=2298
[0mpts:226800 pts_time:2.52 dts:223200 dts_time:2.48 duration:0 duration_time:0 stream_index:0
[48;5;0m[38;5;213m[mpeg @ 0x7fffe86d22b0] [0m[48;5;0m[38;5;196mbuffer underflow st=0 bufi=1704 size=1918
[0mpts:230400 pts_time:2.56 dts:226800 dts_time:2.52 duration:0 duration_time:0 stream_index:0
[48;5;0m[38;5;213m[mpeg @ 0x7fffe86d22b0] [0m[48;5;0m[38;5;196mbuffer underflow st=0 bufi=1818 size=2407
[0mpts:234000 pts_time:2.6 dts:230400 dts_time:2.56 duration:0 duration_time:0 stream_index:0
pts:237600 pts_time:2.64 dts:234000 dts_time:2.6 duration:0 duration_time:0 stream_index:0
[48;5;0m[38;5;213m[mpeg @ 0x7fffe86d22b0] [0m[48;5;0m[38;5;196mbuffer underflow st=0 bufi=87 size=1594
[0mpts:241200 pts_time:2.68 dts:237600 dts_time:2.64 duration:0 duration_time:0 stream_index:0
[48;5;0m[38;5;213m[mpeg @ 0x7fffe86d22b0] [0m[48;5;0m[38;5;196mbuffer underflow st=0 bufi=525 size=2227
[0mpts:244800 pts_time:2.72 dts:241200 dts_time:2.68 duration:0 duration_time:0 stream_index:0
[48;5;0m[38;5;213m[mpeg @ 0x7fffe86d22b0] [0m[48;5;0m[38;5;196mbuffer underflow st=0 bufi=330 size=2463
[0m[48;5;0m[38;5;213m[mpeg @ 0x7fffe86d22b0] [0m[48;5;0m[38;5;196mbuffer underflow st=0 bufi=2371 size=2463
[0mpts:248400 pts_time:2.76 dts:244800 dts_time:2.72 duration:0 duration_time:0 stream_index:0
pts:252000 pts_time:2.8 dts:248400 dts_time:2.76 duration:0 duration_time:0 stream_index:0
[48;5;0m[38;5;213m[mpeg @ 0x7fffe86d22b0] [0m[48;5;0m[38;5;196mbuffer underflow st=0 bufi=322 size=2197
[0mpts:255600 pts_time:2.84 dts:252000 dts_time:2.8 duration:0 duration_time:0 stream_index:0
[48;5;0m[38;5;213m[mpeg @ 0x7fffe86d22b0] [0m[48;5;0m[38;5;196mbuffer underflow st=0 bufi=157 size=1725
[0mpts:259200 pts_time:2.88 dts:255600 dts_time:2.84 duration:0 duration_time:0 stream_index:0
[48;5;0m[38;5;213m[mpeg @ 0x7fffe86d22b0] [0m[48;5;0m[38;5;196mbuffer underflow st=0 bufi=464 size=2074
[0mpts:262800 pts_time:2.92 dts:259200 dts_time:2.88 duration:0 duration_time:0 stream_index:0
[48;5;0m[38;5;213m[mpeg @ 0x7fffe86d22b0] [0m[48;5;0m[38;5;196mbuffer underflow st=0 bufi=422 size=10395
[0m[48;5;0m[38;5;213m[mpeg @ 0x7fffe86d22b0] [0m[48;5;0m[38;5;196mbuffer underflow st=0 bufi=2463 size=10395
[0m[48;5;0m[38;5;213m[mpeg @ 0x7fffe86d22b0] [0m[48;5;0m[38;5;196mbuffer underflow st=0 bufi=4504 size=10395
[0m[48;5;0m[38;5;213m[mpeg @ 0x7fffe86d22b0] [0m[48;5;0m[38;5;196mbuffer underflow st=0 bufi=6545 size=10395
[0m[48;5;0m[38;5;213m[mpeg @ 0x7fffe86d22b0] [0m[48;5;0m[38;5;196mbuffer underflow st=0 bufi=8586 size=10395
[0mpts:266400 pts_time:2.96 dts:262800 dts_time:2.92 duration:0 duration_time:0 stream_index:0
[48;5;0m[38;5;213m[mpeg @ 0x7fffe86d22b0] [0m[48;5;0m[38;5;196mbuffer underflow st=0 bufi=223 size=2054
[0mpts:270000 pts_time:3 dts:266400 dts_time:2.96 duration:0 duration_time:0 stream_index:0
[48;5;0m[38;5;213m[mpeg @ 0x7fffe86d22b0] [0m[48;5;0m[38;5;196mbuffer underflow st=0 bufi=201 size=2282
[0m[48;5;0m[38;5;213m[mpeg @ 0x7fffe86d22b0] [0m[48;5;0m[38;5;196mbuffer underflow st=0 bufi=2242 size=2282
[0mpts:273600 pts_time:3.04 dts:270000 dts_time:3 duration:0 duration_time:0 stream_index:0
[48;5;0m[38;5;213m[mpeg @ 0x7fffe86d22b0] [0m[48;5;0m[38;5;196mbuffer underflow st=0 bufi=1992 size=2530
[0mpts:277200 pts_time:3.08 dts:273600 dts_time:3.04 duration:0 duration_time:0 stream_index:0
[48;5;0m[38;5;213m[mpeg @ 0x7fffe86d22b0] [0m[48;5;0m[38;5;196mbuffer underflow st=0 bufi=1494 size=2355
[0mpts:280800 pts_time:3.12 dts:277200 dts_time:3.08 duration:0 duration_time:0 stream_index:0
[48;5;0m[38;5;213m[mpeg @ 0x7fffe86d22b0] [0m[48;5;0m[38;5;196mbuffer underflow st=0 bufi=1159 size=2091
[0mpts:284400 pts_time:3.16 dts:280800 dts_time:3.12 duration:0 duration_time:0 stream_index:0
[48;5;0m[38;5;213m[mpeg @ 0x7fffe86d22b0] [0m[48;5;0m[38;5;196mbuffer underflow st=0 bufi=1100 size=3499
[0m[48;5;0m[38;5;213m[mpeg @ 0x7fffe86d22b0] [0m[48;5;0m[38;5;196mbuffer underflow st=0 bufi=3141 size=3499
[0mpts:288000 pts_time:3.2 dts:284400 dts_time:3.16 duration:0 duration_time:0 stream_index:0
[48;5;0m[38;5;213m[mpeg @ 0x7fffe86d22b0] [0m[48;5;0m[38;5;196mbuffer underflow st=0 bufi=1674 size=1811
[0mpts:291600 pts_time:3.24 dts:288000 dts_time:3.2 duration:0 duration_time:0 stream_index:0
[48;5;0m[38;5;213m[mpeg @ 0x7fffe86d22b0] [0m[48;5;0m[38;5;196mbuffer underflow st=0 bufi=1895 size=3558
[0mpts:295200 pts_time:3.28 dts:291600 dts_time:3.24 duration:0 duration_time:0 stream_index:0
[48;5;0m[38;5;213m[mpeg @ 0x7fffe86d22b0] [0m[48;5;0m[38;5;196mbuffer underflow st=0 bufi=369 size=3436
[0m[48;5;0m[38;5;213m[mpeg @ 0x7fffe86d22b0] [0m[48;5;0m[38;5;196mbuffer underflow st=0 bufi=2410 size=3436
[0mpts:298800 pts_time:3.32 dts:295200 dts_time:3.28 duration:0 duration_time:0 stream_index:0
[48;5;0m[38;5;213m[mpeg @ 0x7fffe86d22b0] [0m[48;5;0m[38;5;196mbuffer underflow st=0 bufi=1006 size=2308
[0mpts:302400 pts_time:3.36 dts:298800 dts_time:3.32 duration:0 duration_time:0 stream_index:0
[48;5;0m[38;5;213m[mpeg @ 0x7fffe86d22b0] [0m[48;5;0m[38;5;196mbuffer underflow st=0 bufi=730 size=2116
[0mpts:306000 pts_time:3.4 dts:302400 dts_time:3.36 duration:0 duration_time:0 stream_index:0
[48;5;0m[38;5;213m[mpeg @ 0x7fffe86d22b0] [0m[48;5;0m[38;5;196mbuffer underflow st=0 bufi=646 size=10244
[0m[48;5;0m[38;5;213m[mpeg @ 0x7fffe86d22b0] [0m[48;5;0m[38;5;196mbuffer underflow st=0 bufi=2687 size=10244
[0m[48;5;0m[38;5;213m[mpeg @ 0x7fffe86d22b0] [0m[48;5;0m[38;5;196mbuffer underflow st=0 bufi=4728 size=10244
[0m[48;5;0m[38;5;213m[mpeg @ 0x7fffe86d22b0] [0m[48;5;0m[38;5;196mbuffer underflow st=0 bufi=6769 size=10244
[0m[48;5;0m[38;5;213m[mpeg @ 0x7fffe86d22b0] [0m[48;5;0m[38;5;196mbuffer underflow st=0 bufi=8810 size=10244
[0mpts:309600 pts_time:3.44 dts:306000 dts_time:3.4 duration:0 duration_time:0 stream_index:0
[48;5;0m[38;5;213m[mpeg @ 0x7fffe86d22b0] [0m[48;5;0m[38;5;196mbuffer underflow st=0 bufi=598 size=2583
[0mpts:313200 pts_time:3.48 dts:309600 dts_time:3.44 duration:0 duration_time:0 stream_index:0
[48;5;0m[38;5;213m[mpeg @ 0x7fffe86d22b0] [0m[48;5;0m[38;5;196mbuffer underflow st=0 bufi=47 size=2382
[0m[48;5;0m[38;5;213m[mpeg @ 0x7fffe86d22b0] [0m[48;5;0m[38;5;196mbuffer underflow st=0 bufi=2088 size=2382
[0mpts:316800 pts_time:3.52 dts:313200 dts_time:3.48 duration:0 duration_time:0 stream_index:0
[48;5;0m[38;5;213m[mpeg @ 0x7fffe86d22b0] [0m[48;5;0m[38;5;196mbuffer underflow st=0 bufi=1738 size=2584
[0mpts:320400 pts_time:3.56 dts:316800 dts_time:3.52 duration:0 duration_time:0 stream_index:0
[48;5;0m[38;5;213m[mpeg @ 0x7fffe86d22b0] [0m[48;5;0m[38;5;196mbuffer underflow st=0 bufi=1186 size=2226
[0mpts:324000 pts_time:3.6 dts:320400 dts_time:3.56 duration:0 duration_time:0 stream_index:0
[48;5;0m[38;5;213m[mpeg @ 0x7fffe86d22b0] [0m[48;5;0m[38;5;196mbuffer underflow st=0 bufi=992 size=2415
[0mpts:327600 pts_time:3.64 dts:324000 dts_time:3.6 duration:0 duration_time:0 stream_index:0
[48;5;0m[38;5;213m[mpeg @ 0x7fffe86d22b0] [0m[48;5;0m[38;5;196mbuffer underflow st=0 bufi=609 size=2492
[0mpts:331200 pts_time:3.68 dts:327600 dts_time:3.64 duration:0 duration_time:0 stream_index:0
[48;5;0m[38;5;213m[mpeg @ 0x7fffe86d22b0] [0m[48;5;0m[38;5;196mbuffer underflow st=0 bufi=149 size=2410
[0m[48;5;0m[38;5;213m[mpeg @ 0x7fffe86d22b0] [0m[48;5;0m[38;5;196mbuffer underflow st=0 bufi=2190 size=2410
[0mpts:334800 pts_time:3.72 dts:331200 dts_time:3.68 duration:0 duration_time:0 stream_index:0
[48;5;0m[38;5;213m[mpeg @ 0x7fffe86d22b0] [0m[48;5;0m[38;5;196mbuffer underflow st=0 bufi=1812 size=1874
[0mpts:338400 pts_time:3.76 dts:334800 dts_time:3.72 duration:0 duration_time:0 stream_index:0
[48;5;0m[38;5;213m[mpeg @ 0x7fffe86d22b0] [0m[48;5;0m[38;5;196mbuffer underflow st=0 bufi=1970 size=2186
[0mpts:342000 pts_time:3.8 dts:338400 dts_time:3.76 duration:0 duration_time:0 stream_index:0
[48;5;0m[38;5;213m[mpeg @ 0x7fffe86d22b0] [0m[48;5;0m[38;5;196mbuffer underflow st=0 bufi=1816 size=2526
[0mpts:345600 pts_time:3.84 dts:342000 dts_time:3.8 duration:0 duration_time:0 stream_index:0
[48;5;0m[38;5;213m[mpeg @ 0x7fffe86d22b0] [0m[48;5;0m[38;5;196mbuffer underflow st=0 bufi=1322 size=1720
[0mpts:349200 pts_time:3.88 dts:345600 dts_time:3.84 duration:0 duration_time:0 stream_index:0
[48;5;0m[38;5;213m[mpeg @ 0x7fffe86d22b0] [0m[48;5;0m[38;5;196mbuffer underflow st=0 bufi=1634 size=10479
[0m[48;5;0m[38;5;213m[mpeg @ 0x7fffe86d22b0] [0m[48;5;0m[38;5;196mbuffer underflow st=0 bufi=3675 size=10479
[0m[48;5;0m[38;5;213m[mpeg @ 0x7fffe86d22b0] [0m[48;5;0m[38;5;196mbuffer underflow st=0 bufi=5716 size=10479
[0m[48;5;0m[38;5;213m[mpeg @ 0x7fffe86d22b0] [0m[48;5;0m[38;5;196mbuffer underflow st=0 bufi=7757 size=10479
[0m[48;5;0m[38;5;213m[mpeg @ 0x7fffe86d22b0] [0m[48;5;0m[38;5;196mbuffer underflow st=0 bufi=9798 size=10479
[0mpts:352800 pts_time:3.92 dts:349200 dts_time:3.88 duration:0 duration_time:0 stream_index:0
[48;5;0m[38;5;213m[mpeg @ 0x7fffe86d22b0] [0m[48;5;0m[38;5;196mbuffer underflow st=0 bufi=1351 size=1913
[0mpts:356400 pts_time:3.96 dts:352800 dts_time:3.92 duration:0 duration_time:0 stream_index:0
[48;5;0m[38;5;213m[mpeg @ 0x7fffe86d22b0] [0m[48;5;0m[38;5;196mbuffer underflow st=0 bufi=1470 size=2333
[0mpts:360000 pts_time:4 dts:356400 dts_time:3.96 duration:0 duration_time:0 stream_index:0
[48;5;0m[38;5;213m[mpeg @ 0x7fffe86d22b0] [0m[48;5;0m[38;5;196mbuffer underflow st=0 bufi=1169 size=2512
[0mpts:363600 pts_time:4.04 dts:360000 dts_time:4 duration:0 duration_time:0 stream_index:0
[48;5;0m[38;5;213m[mpeg @ 0x7fffe86d22b0] [0m[48;5;0m[38;5;196mbuffer underflow st=0 bufi=689 size=2153
[0mpts:367200 pts_time:4.08 dts:363600 dts_time:4.04 duration:0 duration_time:0 stream_index:0
[48;5;0m[38;5;213m[mpeg @ 0x7fffe86d22b0] [0m[48;5;0m[38;5;196mbuffer underflow st=0 bufi=568 size=1827
[0mpts:370800 pts_time:4.12 dts:367200 dts_time:4.08 duration:0 duration_time:0 stream_index:0
[48;5;0m[38;5;213m[mpeg @ 0x7fffe86d22b0] [0m[48;5;0m[38;5;196mbuffer underflow st=0 bufi=773 size=2794
[0mpts:374400 pts_time:4.16 dts:370800 dts_time:4.12 duration:0 duration_time:0 stream_index:0
[48;5;0m[38;5;213m[mpeg @ 0x7fffe86d22b0] [0m[48;5;0m[38;5;196mbuffer underflow st=0 bufi=11 size=1944
[0mpts:378000 pts_time:4.2 dts:374400 dts_time:4.16 duration:0 duration_time:0 stream_index:0
[48;5;0m[38;5;213m[mpeg @ 0x7fffe86d22b0] [0m[48;5;0m[38;5;196mbuffer underflow st=0 bufi=99 size=1768
[0mpts:381600 pts_time:4.24 dts:378000 dts_time:4.2 duration:0 duration_time:0 stream_index:0
[48;5;0m[38;5;213m[mpeg @ 0x7fffe86d22b0] [0m[48;5;0m[38;5;196mbuffer underflow st=0 bufi=363 size=2401
[0mpts:385200 pts_time:4.28 dts:381600 dts_time:4.24 duration:0 duration_time:0 stream_index:0
[48;5;0m[38;5;213m[mpeg @ 0x7fffe86d22b0] [0m[48;5;0m[38;5;196mbuffer underflow st=0 bufi=3 size=1494
[0mpts:388800 pts_time:4.32 dts:385200 dts_time:4.28 duration:0 duration_time:0 stream_index:0
[48;5;0m[38;5;213m[mpeg @ 0x7fffe86d22b0] [0m[48;5;0m[38;5;196mbuffer underflow st=0 bufi=541 size=2513
[0mpts:392400 pts_time:4.36 dts:388800 dts_time:4.32 duration:0 duration_time:0 stream_index:0
[48;5;0m[38;5;213m[mpeg @ 0x7fffe86d22b0] [0m[48;5;0m[38;5;196mbuffer underflow st=0 bufi=60 size=9992
[0m[48;5;0m[38;5;213m[mpeg @ 0x7fffe86d22b0] [0m[48;5;0m[38;5;196mbuffer underflow st=0 bufi=2101 size=9992
[0m[48;5;0m[38;5;213m[mpeg @ 0x7fffe86d22b0] [0m[48;5;0m[38;5;196mbuffer underflow st=0 bufi=4142 size=9992
[0m[48;5;0m[38;5;213m[mpeg @ 0x7fffe86d22b0] [0m[48;5;0m[38;5;196mbuffer underflow st=0 bufi=6183 size=9992
[0m[48;5;0m[38;5;213m[mpeg @ 0x7fffe86d22b0] [0m[48;5;0m[38;5;196mbuffer underflow st=0 bufi=8224 size=9992
[0mpts:396000 pts_time:4.4 dts:392400 dts_time:4.36 duration:0 duration_time:0 stream_index:0
[48;5;0m[38;5;213m[mpeg @ 0x7fffe86d22b0] [0m[48;5;0m[38;5;196mbuffer underflow st=0 bufi=264 size=2300
[0mpts:399600 pts_time:4.44 dts:396000 dts_time:4.4 duration:0 duration_time:0 stream_index:0
[48;5;0m[38;5;213m[mpeg @ 0x7fffe86d22b0] [0m[48;5;0m[38;5;196mbuffer underflow st=0 bufi=5 size=1905
[0mpts:403200 pts_time:4.48 dts:399600 dts_time:4.44 duration:0 duration_time:0 stream_index:0
[48;5;0m[38;5;213m[mpeg @ 0x7fffe86d22b0] [0m[48;5;0m[38;5;196mbuffer underflow st=0 bufi=132 size=2389
[0m[48;5;0m[38;5;213m[mpeg @ 0x7fffe86d22b0] [0m[48;5;0m[38;5;196mbuffer underflow st=0 bufi=2173 size=2389
[0mpts:406800 pts_time:4.52 dts:403200 dts_time:4.48 duration:0 duration_time:0 stream_index:0
pts:410400 pts_time:4.56 dts:406800 dts_time:4.52 duration:0 duration_time:0 stream_index:0
[48;5;0m[38;5;213m[mpeg @ 0x7fffe86d22b0] [0m[48;5;0m[38;5;196mbuffer underflow st=0 bufi=21 size=1979
[0mpts:414000 pts_time:4.6 dts:410400 dts_time:4.56 duration:0 duration_time:0 stream_index:0
[48;5;0m[38;5;213m[mpeg @ 0x7fffe86d22b0] [0m[48;5;0m[38;5;196mbuffer underflow st=0 bufi=74 size=2704
[0m[48;5;0m[38;5;213m[mpeg @ 0x7fffe86d22b0] [0m[48;5;0m[38;5;196mbuffer underflow st=0 bufi=2115 size=2704
[0mpts:417600 pts_time:4.64 dts:414000 dts_time:4.6 duration:0 duration_time:0 stream_index:0
[48;5;0m[38;5;213m[mpeg @ 0x7fffe86d22b0] [0m[48;5;0m[38;5;196mbuffer underflow st=0 bufi=1443 size=2467
[0mpts:421200 pts_time:4.68 dts:417600 dts_time:4.64 duration:0 duration_time:0 stream_index:0
[48;5;0m[38;5;213m[mpeg @ 0x7fffe86d22b0] [0m[48;5;0m[38;5;196mbuffer underflow st=0 bufi=1008 size=2056
[0mpts:424800 pts_time:4.72 dts:421200 dts_time:4.68 duration:0 duration_time:0 stream_index:0
[48;5;0m[38;5;213m[mpeg @ 0x7fffe86d22b0] [0m[48;5;0m[38;5;196mbuffer underflow st=0 bufi=984 size=2151
[0mpts:428400 pts_time:4.76 dts:424800 dts_time:4.72 duration:0 duration_time:0 stream_index:0
[48;5;0m[38;5;213m[mpeg @ 0x7fffe86d22b0] [0m[48;5;0m[38;5;196mbuffer underflow st=0 bufi=865 size=2694
[0mpts:432000 pts_time:4.8 dts:428400 dts_time:4.76 duration:0 duration_time:0 stream_index:0
[48;5;0m[38;5;213m[mpeg @ 0x7fffe86d22b0] [0m[48;5;0m[38;5;196mbuffer underflow st=0 bufi=203 size=1552
[0mpts:435600 pts_time:4.84 dts:432000 dts_time:4.8 duration:0 duration_time:0 stream_index:0
[48;5;0m[38;5;213m[mpeg @ 0x7fffe86d22b0] [0m[48;5;0m[38;5;196mbuffer underflow st=0 bufi=683 size=10476
[0m[48;5;0m[38;5;213m[mpeg @ 0x7fffe86d22b0] [0m[48;5;0m[38;5;196mbuffer underflow st=0 bufi=2724 size=10476
[0m[48;5;0m[38;5;213m[mpeg @ 0x7fffe86d22b0] [0m[48;5;0m[38;5;196mbuffer underflow st=0 bufi=4765 size=10476
[0m[48;5;0m[38;5;213m[mpeg @ 0x7fffe86d22b0] [0m[48;5;0m[38;5;196mbuffer underflow st=0 bufi=6806 size=10476
[0m[48;5;0m[38;5;213m[mpeg @ 0x7fffe86d22b0] [0m[48;5;0m[38;5;196mbuffer underflow st=0 bufi=8847 size=10476
[0mpts:439200 pts_time:4.88 dts:435600 dts_time:4.84 duration:0 duration_time:0 stream_index:0
[48;5;0m[38;5;213m[mpeg @ 0x7fffe86d22b0] [0m[48;5;0m[38;5;196mbuffer underflow st=0 bufi=403 size=1915
[0mpts:442800 pts_time:4.92 dts:439200 dts_time:4.88 duration:0 duration_time:0 stream_index:0
[48;5;0m[38;5;213m[mpeg @ 0x7fffe86d22b0] [0m[48;5;0m[38;5;196mbuffer underflow st=0 bufi=520 size=2326
[0mpts:446400 pts_time:4.96 dts:442800 dts_time:4.92 duration:0 duration_time:0 stream_index:0
[48;5;0m[38;5;213m[mpeg @ 0x7fffe86d22b0] [0m[48;5;0m[38;5;196mbuffer underflow st=0 bufi=226 size=2503
[0m[48;5;0m[38;5;213m[mpeg @ 0x7fffe86d22b0] [0m[48;5;0m[38;5;196mbuffer underflow st=0 bufi=2267 size=2503
[0mpts:450000 pts_time:5 dts:446400 dts_time:4.96 duration:0 duration_time:0 stream_index:0
[48;5;0m[38;5;213m[mpeg @ 0x7fffe86d22b0] [0m[48;5;0m[38;5;196mbuffer underflow st=0 bufi=1796 size=2058
[0mpts:453600 pts_time:5.04 dts:450000 dts_time:5 duration:0 duration_time:0 stream_index:0
pts:457200 pts_time:5.08 dts:453600 dts_time:5.04 duration:0 duration_time:0 stream_index:0
[48;5;0m[38;5;213m[mpeg @ 0x7fffe86d22b0] [0m[48;5;0m[38;5;196mbuffer underflow st=0 bufi=24 size=2960
[0m[48;5;0m[38;5;213m[mpeg @ 0x7fffe86d22b0] [0m[48;5;0m[38;5;196mbuffer underflow st=0 bufi=2065 size=2960
[0mpts:460800 pts_time:5.12 dts:457200 dts_time:5.08 duration:0 duration_time:0 stream_index:0
[48;5;0m[38;5;213m[mpeg @ 0x7fffe86d22b0] [0m[48;5;0m[38;5;196mbuffer underflow st=0 bufi=1137 size=2269
[0mpts:464400 pts_time:5.16 dts:460800 dts_time:5.12 duration:0 duration_time:0 stream_index:0
[48;5;0m[38;5;213m[mpeg @ 0x7fffe86d22b0] [0m[48;5;0m[38;5;196mbuffer underflow st=0 bufi=900 size=2269
[0mpts:468000 pts_time:5.2 dts:464400 dts_time:5.16 duration:0 duration_time:0 stream_index:0
[48;5;0m[38;5;213m[mpeg @ 0x7fffe86d22b0] [0m[48;5;0m[38;5;196mbuffer underflow st=0 bufi=663 size=2666
[0mpts:471600 pts_time:5.24 dts:468000 dts_time:5.2 duration:0 duration_time:0 stream_index:0
[48;5;0m[38;5;213m[mpeg @ 0x7fffe86d22b0] [0m[48;5;0m[38;5;196mbuffer underflow st=0 bufi=29 size=2313
[0m[48;5;0m[38;5;213m[mpeg @ 0x7fffe86d22b0] [0m[48;5;0m[38;5;196mbuffer underflow st=0 bufi=2070 size=2313
[0mpts:475200 pts_time:5.28 dts:471600 dts_time:5.24 duration:0 duration_time:0 stream_index:0
[48;5;0m[38;5;213m[mpeg @ 0x7fffe86d22b0] [0m[48;5;0m[38;5;196mbuffer underflow st=0 bufi=1789 size=3220
[0mpts:478800 pts_time:5.32 dts:475200 dts_time:5.28 duration:0 duration_time:0 stream_index:0
[48;5;0m[38;5;213m[mpeg @ 0x7fffe86d22b0] [0m[48;5;0m[38;5;196mbuffer underflow st=0 bufi=601 size=10280
[0m[48;5;0m[38;5;213m[mpeg @ 0x7fffe86d22b0] [0m[48;5;0m[38;5;196mbuffer underflow st=0 bufi=2642 size=10280
[0m[48;5;0m[38;5;213m[mpeg @ 0x7fffe86d22b0] [0m[48;5;0m[38;5;196mbuffer underflow st=0 bufi=4683 size=10280
[0m[48;5;0m[38;5;213m[mpeg @ 0x7fffe86d22b0] [0m[48;5;0m[38;5;196mbuffer underflow st=0 bufi=6724 size=10280
[0m[48;5;0m[38;5;213m[mpeg @ 0x7fffe86d22b0] [0m[48;5;0m[38;5;196mbuffer underflow st=0 bufi=8765 size=10280
[0mpts:482400 pts_time:5.36 dts:478800 dts_time:5.32 duration:0 duration_time:0 stream_index:0
[48;5;0m[38;5;213m[mpeg @ 0x7fffe86d22b0] [0m[48;5;0m[38;5;196mbuffer underflow st=0 bufi=517 size=2585
[0m[48;5;0m[38;5;213m[mpeg @ 0x7fffe86d22b0] [0m[48;5;0m[38;5;196mbuffer underflow st=0 bufi=2558 size=2585
[0mpts:486000 pts_time:5.4 dts:482400 dts_time:5.36 duration:0 duration_time:0 stream_index:0
[48;5;0m[38;5;213m[mpeg @ 0x7fffe86d22b0] [0m[48;5;0m[38;5;196mbuffer underflow st=0 bufi=2005 size=2364
[0mpts:489600 pts_time:5.44 dts:486000 dts_time:5.4 duration:0 duration_time:0 stream_index:0
[48;5;0m[38;5;213m[mpeg @ 0x7fffe86d22b0] [0m[48;5;0m[38;5;196mbuffer underflow st=0 bufi=1673 size=2539
[0mpts:493200 pts_time:5.48 dts:489600 dts_time:5.44 duration:0 duration_time:0 stream_index:0
[48;5;0m[38;5;213m[mpeg @ 0x7fffe86d22b0] [0m[48;5;0m[38;5;196mbuffer underflow st=0 bufi=1166 size=2084
[0mpts:496800 pts_time:5.52 dts:493200 dts_time:5.48 duration:0 duration_time:0 stream_index:0
[48;5;0m[38;5;213m[mpeg @ 0x7fffe86d22b0] [0m[48;5;0m[38;5;196mbuffer underflow st=0 bufi=1114 size=2526
[0mpts:500400 pts_time:5.56 dts:496800 dts_time:5.52 duration:0 duration_time:0 stream_index:0
[48;5;0m[38;5;213m[mpeg @ 0x7fffe86d22b0] [0m[48;5;0m[38;5;196mbuffer underflow st=0 bufi=620 size=3212
[0m[48;5;0m[38;5;213m[mpeg @ 0x7fffe86d22b0] [0m[48;5;0m[38;5;196mbuffer underflow st=0 bufi=2661 size=3212
[0mpts:504000 pts_time:5.6 dts:500400 dts_time:5.56 duration:0 duration_time:0 stream_index:0
[48;5;0m[38;5;213m[mpeg @ 0x7fffe86d22b0] [0m[48;5;0m[38;5;196mbuffer underflow st=0 bufi=1481 size=3160
[0mpts:507600 pts_time:5.64 dts:504000 dts_time:5.6 duration:0 duration_time:0 stream_index:0
[48;5;0m[38;5;213m[mpeg @ 0x7fffe86d22b0] [0m[48;5;0m[38;5;196mbuffer underflow st=0 bufi=353 size=2201
[0mpts:511200 pts_time:5.68 dts:507600 dts_time:5.64 duration:0 duration_time:0 stream_index:0
[48;5;0m[38;5;213m[mpeg @ 0x7fffe86d22b0] [0m[48;5;0m[38;5;196mbuffer underflow st=0 bufi=184 size=2491
[0m[48;5;0m[38;5;213m[mpeg @ 0x7fffe86d22b0] [0m[48;5;0m[38;5;196mbuffer underflow st=0 bufi=2225 size=2491
[0mpts:514800 pts_time:5.72 dts:511200 dts_time:5.68 duration:0 duration_time:0 stream_index:0
[48;5;0m[38;5;213m[mpeg @ 0x7fffe86d22b0] [0m[48;5;0m[38;5;196mbuffer underflow st=0 bufi=1766 size=2055
[0mpts:518400 pts_time:5.76 dts:514800 dts_time:5.72 duration:0 duration_time:0 stream_index:0
pts:522000 pts_time:5.8 dts:518400 dts_time:5.76 duration:0 duration_time:0 stream_index:0
[48;5;0m[38;5;213m[mpeg @ 0x7fffe86d22b0] [0m[48;5;0m[38;5;196mbuffer underflow st=0 bufi=310 size=10397
[0m[48;5;0m[38;5;213m[mpeg @ 0x7fffe86d22b0] [0m[48;5;0m[38;5;196mbuffer underflow st=0 bufi=2351 size=10397
[0m[48;5;0m[38;5;213m[mpeg @ 0x7fffe86d22b0] [0m[48;5;0m[38;5;196mbuffer underflow st=0 bufi=4392 size=10397
[0m[48;5;0m[38;5;213m[mpeg @ 0x7fffe86d22b0] [0m[48;5;0m[38;5;196mbuffer underflow st=0 bufi=6433 size=10397
[0m[48;5;0m[38;5;213m[mpeg @ 0x7fffe86d22b0] [0m[48;5;0m[38;5;196mbuffer underflow st=0 bufi=8474 size=10397
[0mpts:525600 pts_time:5.84 dts:522000 dts_time:5.8 duration:0 duration_time:0 stream_index:0
[48;5;0m[38;5;213m[mpeg @ 0x7fffe86d22b0] [0m[48;5;0m[38;5;196mbuffer underflow st=0 bufi=109 size=1935
[0mpts:529200 pts_time:5.88 dts:525600 dts_time:5.84 duration:0 duration_time:0 stream_index:0
[48;5;0m[38;5;213m[mpeg @ 0x7fffe86d22b0] [0m[48;5;0m[38;5;196mbuffer underflow st=0 bufi=206 size=2331
[0m[48;5;0m[38;5;213m[mpeg @ 0x7fffe86d22b0] [0m[48;5;0m[38;5;196mbuffer underflow st=0 bufi=2247 size=2331
[0mpts:532800 pts_time:5.92 dts:529200 dts_time:5.88 duration:0 duration_time:0 stream_index:0
[48;5;0m[38;5;213m[mpeg @ 0x7fffe86d22b0] [0m[48;5;0m[38;5;196mbuffer underflow st=0 bufi=1921 size=2508
[0mpts:536400 pts_time:5.96 dts:532800 dts_time:5.92 duration:0 duration_time:0 stream_index:0
[48;5;0m[38;5;213m[mpeg @ 0x7fffe86d22b0] [0m[48;5;0m[38;5;196mbuffer underflow st=0 bufi=1445 size=2115
[0mpts:540000 pts_time:6 dts:536400 dts_time:5.96 duration:0 duration_time:0 stream_index:0
[48;5;0m[38;5;213m[mpeg @ 0x7fffe86d22b0] [0m[48;5;0m[38;5;196mbuffer underflow st=0 bufi=1362 size=1822
[0mpts:543600 pts_time:6.04 dts:540000 dts_time:6 duration:0 duration_time:0 stream_index:0
[48;5;0m[38;5;213m[mpeg @ 0x7fffe86d22b0] [0m[48;5;0m[38;5;196mbuffer underflow st=0 bufi=1572 size=2890
[0mpts:547200 pts_time:6.08 dts:543600 dts_time:6.04 duration:0 duration_time:0 stream_index:0
[48;5;0m[38;5;213m[mpeg @ 0x7fffe86d22b0] [0m[48;5;0m[38;5;196mbuffer underflow st=0 bufi=714 size=2375
[0mpts:550800 pts_time:6.12 dts:547200 dts_time:6.08 duration:0 duration_time:0 stream_index:0
[48;5;0m[38;5;213m[mpeg @ 0x7fffe86d22b0] [0m[48;5;0m[38;5;196mbuffer underflow st=0 bufi=371 size=1813
[0mpts:554400 pts_time:6.16 dts:550800 dts_time:6.12 duration:0 duration_time:0 stream_index:0
[48;5;0m[38;5;213m[mpeg @ 0x7fffe86d22b0] [0m[48;5;0m[38;5;196mbuffer underflow st=0 bufi=590 size=2104
[0mpts:558000 pts_time:6.2 dts:554400 dts_time:6.16 duration:0 duration_time:0 stream_index:0
[48;5;0m[38;5;213m[mpeg @ 0x7fffe86d22b0] [0m[48;5;0m[38;5;196mbuffer underflow st=0 bufi=518 size=2918
[0m[48;5;0m[38;5;213m[mpeg @ 0x7fffe86d22b0] [0m[48;5;0m[38;5;196mbuffer underflow st=0 bufi=2559 size=2918
[0mpts:561600 pts_time:6.24 dts:558000 dts_time:6.2 duration:0 duration_time:0 stream_index:0
[48;5;0m[38;5;213m[mpeg @ 0x7fffe86d22b0] [0m[48;5;0m[38;5;196mbuffer underflow st=0 bufi=1673 size=1861
[0mpts:565200 pts_time:6.28 dts:561600 dts_time:6.24 duration:0 duration_time:0 stream_index:0
[48;5;0m[38;5;213m[mpeg @ 0x7fffe86d22b0] [0m[48;5;0m[38;5;196mbuffer underflow st=0 bufi=1844 size=9923
[0m[48;5;0m[38;5;213m[mpeg @ 0x7fffe86d22b0] [0m[48;5;0m[38;5;196mbuffer underflow st=0 bufi=3885 size=9923
[0m[48;5;0m[38;5;213m[mpeg @ 0x7fffe86d22b0] [0m[48;5;0m[38;5;196mbuffer underflow st=0 bufi=5926 size=9923
[0m[48;5;0m[38;5;213m[mpeg @ 0x7fffe86d22b0] [0m[48;5;0m[38;5;196mbuffer underflow st=0 bufi=7967 size=9923
[0mpts:568800 pts_time:6.32 dts:565200 dts_time:6.28 duration:0 duration_time:0 stream_index:0
[48;5;0m[38;5;213m[mpeg @ 0x7fffe86d22b0] [0m[48;5;0m[38;5;196mbuffer underflow st=0 bufi=76 size=2287
[0m[48;5;0m[38;5;213m[mpeg @ 0x7fffe86d22b0] [0m[48;5;0m[38;5;196mbuffer underflow st=0 bufi=2117 size=2287
[0mpts:572400 pts_time:6.36 dts:568800 dts_time:6.32 duration:0 duration_time:0 stream_index:0
[48;5;0m[38;5;213m[mpeg @ 0x7fffe86d22b0] [0m[48;5;0m[38;5;196mbuffer underflow st=0 bufi=1862 size=1908
[0mpts:576000 pts_time:6.4 dts:572400 dts_time:6.36 duration:0 duration_time:0 stream_index:0
[48;5;0m[38;5;213m[mpeg @ 0x7fffe86d22b0] [0m[48;5;0m[38;5;196mbuffer underflow st=0 bufi=1986 size=2386
[0mpts:579600 pts_time:6.44 dts:576000 dts_time:6.4 duration:0 duration_time:0 stream_index:0
[48;5;0m[38;5;213m[mpeg @ 0x7fffe86d22b0] [0m[48;5;0m[38;5;196mbuffer underflow st=0 bufi=1632 size=1776
[0mpts:583200 pts_time:6.48 dts:579600 dts_time:6.44 duration:0 duration_time:0 stream_index:0
[48;5;0m[38;5;213m[mpeg @ 0x7fffe86d22b0] [0m[48;5;0m[38;5;196mbuffer underflow st=0 bufi=1888 size=2011
[0mpts:586800 pts_time:6.52 dts:583200 dts_time:6.48 duration:0 duration_time:0 stream_index:0
[48;5;0m[38;5;213m[mpeg @ 0x7fffe86d22b0] [0m[48;5;0m[38;5;196mbuffer underflow st=0 bufi=1909 size=2760
[0mpts:590400 pts_time:6.56 dts:586800 dts_time:6.52 duration:0 duration_time:0 stream_index:0
[48;5;0m[38;5;213m[mpeg @ 0x7fffe86d22b0] [0m[48;5;0m[38;5;196mbuffer underflow st=0 bufi=1181 size=2478
[0mpts:594000 pts_time:6.6 dts:590400 dts_time:6.56 duration:0 duration_time:0 stream_index:0
[48;5;0m[38;5;213m[mpeg @ 0x7fffe86d22b0] [0m[48;5;0m[38;5;196mbuffer underflow st=0 bufi=735 size=1958
[0mpts:597600 pts_time:6.64 dts:594000 dts_time:6.6 duration:0 duration_time:0 stream_index:0
[48;5;0m[38;5;213m[mpeg @ 0x7fffe86d22b0] [0m[48;5;0m[38;5;196mbuffer underflow st=0 bufi=809 size=1786
[0mpts:601200 pts_time:6.68 dts:597600 dts_time:6.64 duration:0 duration_time:0 stream_index:0
[48;5;0m[38;5;213m[mpeg @ 0x7fffe86d22b0] [0m[48;5;0m[38;5;196mbuffer underflow st=0 bufi=1055 size=2195
[0mpts:604800 pts_time:6.72 dts:601200 dts_time:6.68 duration:0 duration_time:0 stream_index:0
[48;5;0m[38;5;213m[mpeg @ 0x7fffe86d22b0] [0m[48;5;0m[38;5;196mbuffer underflow st=0 bufi=892 size=2149
[0mpts:608400 pts_time:6.76 dts:604800 dts_time:6.72 duration:0 duration_time:0 stream_index:0
[48;5;0m[38;5;213m[mpeg @ 0x7fffe86d22b0] [0m[48;5;0m[38;5;196mbuffer underflow st=0 bufi=775 size=10396
[0m[48;5;0m[38;5;213m[mpeg @ 0x7fffe86d22b0] [0m[48;5;0m[38;5;196mbuffer underflow st=0 bufi=2816 size=10396
[0m[48;5;0m[38;5;213m[mpeg @ 0x7fffe86d22b0] [0m[48;5;0m[38;5;196mbuffer underflow st=0 bufi=4857 size=10396
[0m[48;5;0m[38;5;213m[mpeg @ 0x7fffe86d22b0] [0m[48;5;0m[38;5;196mbuffer underflow st=0 bufi=6898 size=10396
[0m[48;5;0m[38;5;213m[mpeg @ 0x7fffe86d22b0] [0m[48;5;0m[38;5;196mbuffer underflow st=0 bufi=8939 size=10396
[0mpts:612000 pts_time:6.8 dts:608400 dts_time:6.76 duration:0 duration_time:0 stream_index:0
[48;5;0m[38;5;213m[mpeg @ 0x7fffe86d22b0] [0m[48;5;0m[38;5;196mbuffer underflow st=0 bufi=575 size=1919
[0mpts:615600 pts_time:6.84 dts:612000 dts_time:6.8 duration:0 duration_time:0 stream_index:0
[48;5;0m[38;5;213m[mpeg @ 0x7fffe86d22b0] [0m[48;5;0m[38;5;196mbuffer underflow st=0 bufi=688 size=2314
[0mpts:619200 pts_time:6.88 dts:615600 dts_time:6.84 duration:0 duration_time:0 stream_index:0
[48;5;0m[38;5;213m[mpeg @ 0x7fffe86d22b0] [0m[48;5;0m[38;5;196mbuffer underflow st=0 bufi=406 size=2506
[0m[48;5;0m[38;5;213m[mpeg @ 0x7fffe86d22b0] [0m[48;5;0m[38;5;196mbuffer underflow st=0 bufi=2447 size=2506
[0mpts:622800 pts_time:6.92 dts:619200 dts_time:6.88 duration:0 duration_time:0 stream_index:0
[48;5;0m[38;5;213m[mpeg @ 0x7fffe86d22b0] [0m[48;5;0m[38;5;196mbuffer underflow st=0 bufi=1973 size=2036
[0mpts:626400 pts_time:6.96 dts:622800 dts_time:6.92 duration:0 duration_time:0 stream_index:0
pts:630000 pts_time:7 dts:626400 dts_time:6.96 duration:0 duration_time:0 stream_index:0
[48;5;0m[38;5;213m[mpeg @ 0x7fffe86d22b0] [0m[48;5;0m[38;5;196mbuffer underflow st=0 bufi=371 size=3112
[0m[48;5;0m[38;5;213m[mpeg @ 0x7fffe86d22b0] [0m[48;5;0m[38;5;196mbuffer underflow st=0 bufi=2412 size=3112
[0mpts:633600 pts_time:7.04 dts:630000 dts_time:7 duration:0 duration_time:0 stream_index:0
[48;5;0m[38;5;213m[mpeg @ 0x7fffe86d22b0] [0m[48;5;0m[38;5;196mbuffer underflow st=0 bufi=1332 size=1414
[0mpts:637200 pts_time:7.08 dts:633600 dts_time:7.04 duration:0 duration_time:0 stream_index:0
[48;5;0m[38;5;213m[mpeg @ 0x7fffe86d22b0] [0m[48;5;0m[38;5;196mbuffer underflow st=0 bufi=1950 size=2626
[0mpts:640800 pts_time:7.12 dts:637200 dts_time:7.08 duration:0 duration_time:0 stream_index:0
[48;5;0m[38;5;213m[mpeg @ 0x7fffe86d22b0] [0m[48;5;0m[38;5;196mbuffer underflow st=0 bufi=1356 size=2831
[0mpts:644400 pts_time:7.16 dts:640800 dts_time:7.12 duration:0 duration_time:0 stream_index:0
[48;5;0m[38;5;213m[mpeg @ 0x7fffe86d22b0] [0m[48;5;0m[38;5;196mbuffer underflow st=0 bufi=557 size=1940
[0mpts:648000 pts_time:7.2 dts:644400 dts_time:7.16 duration:0 duration_time:0 stream_index:0
[48;5;0m[38;5;213m[mpeg @ 0x7fffe86d22b0] [0m[48;5;0m[38;5;196mbuffer underflow st=0 bufi=649 size=2075
[0mpts:651600 pts_time:7.24 dts:648000 dts_time:7.2 duration:0 duration_time:0 stream_index:0
[48;5;0m[38;5;213m[mpeg @ 0x7fffe86d22b0] [0m[48;5;0m[38;5;196mbuffer underflow st=0 bufi=606 size=10311
[0m[48;5;0m[38;5;213m[mpeg @ 0x7fffe86d22b0] [0m[48;5;0m[38;5;196mbuffer underflow st=0 bufi=2647 size=10311
[0m[48;5;0m[38;5;213m[mpeg @ 0x7fffe86d22b0] [0m[48;5;0m[38;5;196mbuffer underflow st=0 bufi=4688 size=10311
[0m[48;5;0m[38;5;213m[mpeg @ 0x7fffe86d22b0] [0m[48;5;0m[38;5;196mbuffer underflow st=0 bufi=6729 size=10311
[0m[48;5;0m[38;5;213m[mpeg @ 0x7fffe86d22b0] [0m[48;5;0m[38;5;196mbuffer underflow st=0 bufi=8770 size=10311
[0mpts:655200 pts_time:7.28 dts:651600 dts_time:7.24 duration:0 duration_time:0 stream_index:0
[48;5;0m[38;5;213m[mpeg @ 0x7fffe86d22b0] [0m[48;5;0m[38;5;196mbuffer underflow st=0 bufi=491 size=2600
[0m[48;5;0m[38;5;213m[mpeg @ 0x7fffe86d22b0] [0m[48;5;0m[38;5;196mbuffer underflow st=0 bufi=2532 size=2600
[0mpts:658800 pts_time:7.32 dts:655200 dts_time:7.28 duration:0 duration_time:0 stream_index:0
[48;5;0m[38;5;213m[mpeg @ 0x7fffe86d22b0] [0m[48;5;0m[38;5;196mbuffer underflow st=0 bufi=1964 size=2382
[0mpts:662400 pts_time:7.36 dts:658800 dts_time:7.32 duration:0 duration_time:0 stream_index:0
[48;5;0m[38;5;213m[mpeg @ 0x7fffe86d22b0] [0m[48;5;0m[38;5;196mbuffer underflow st=0 bufi=1614 size=2576
[0mpts:666000 pts_time:7.4 dts:662400 dts_time:7.36 duration:0 duration_time:0 stream_index:0
[48;5;0m[38;5;213m[mpeg @ 0x7fffe86d22b0] [0m[48;5;0m[38;5;196mbuffer underflow st=0 bufi=1058 size=2104
[0mpts:669600 pts_time:7.44 dts:666000 dts_time:7.4 duration:0 duration_time:0 stream_index:0
[48;5;0m[38;5;213m[mpeg @ 0x7fffe86d22b0] [0m[48;5;0m[38;5;196mbuffer underflow st=0 bufi=986 size=2544
[0mpts:673200 pts_time:7.48 dts:669600 dts_time:7.44 duration:0 duration_time:0 stream_index:0
[48;5;0m[38;5;213m[mpeg @ 0x7fffe86d22b0] [0m[48;5;0m[38;5;196mbuffer underflow st=0 bufi=474 size=3067
[0m[48;5;0m[38;5;213m[mpeg @ 0x7fffe86d22b0] [0m[48;5;0m[38;5;196mbuffer underflow st=0 bufi=2515 size=3067
[0mpts:676800 pts_time:7.52 dts:673200 dts_time:7.48 duration:0 duration_time:0 stream_index:0
[48;5;0m[38;5;213m[mpeg @ 0x7fffe86d22b0] [0m[48;5;0m[38;5;196mbuffer underflow st=0 bufi=1480 size=3071
[0mpts:680400 pts_time:7.56 dts:676800 dts_time:7.52 duration:0 duration_time:0 stream_index:0
[48;5;0m[38;5;213m[mpeg @ 0x7fffe86d22b0] [0m[48;5;0m[38;5;196mbuffer underflow st=0 bufi=441 size=2576
[0m[48;5;0m[38;5;213m[mpeg @ 0x7fffe86d22b0] [0m[48;5;0m[38;5;196mbuffer underflow st=0 bufi=2482 size=2576
[0mpts:684000 pts_time:7.6 dts:680400 dts_time:7.56 duration:0 duration_time:0 stream_index:0
[48;5;0m[38;5;213m[mpeg @ 0x7fffe86d22b0] [0m[48;5;0m[38;5;196mbuffer underflow st=0 bufi=1938 size=2725
[0mpts:687600 pts_time:7.64 dts:684000 dts_time:7.6 duration:0 duration_time:0 stream_index:0
[48;5;0m[38;5;213m[mpeg @ 0x7fffe86d22b0] [0m[48;5;0m[38;5;196mbuffer underflow st=0 bufi=1245 size=2679
[0mpts:691200 pts_time:7.68 dts:687600 dts_time:7.64 duration:0 duration_time:0 stream_index:0
[48;5;0m[38;5;213m[mpeg @ 0x7fffe86d22b0] [0m[48;5;0m[38;5;196mbuffer underflow st=0 bufi=598 size=1764
[0mpts:694800 pts_time:7.72 dts:691200 dts_time:7.68 duration:0 duration_time:0 stream_index:0
[48;5;0m[38;5;213m[mpeg @ 0x7fffe86d22b0] [0m[48;5;0m[38;5;196mbuffer underflow st=0 bufi=866 size=10122
[0m[48;5;0m[38;5;213m[mpeg @ 0x7fffe86d22b0] [0m[48;5;0m[38;5;196mbuffer underflow st=0 bufi=2907 size=10122
[0m[48;5;0m[38;5;213m[mpeg @ 0x7fffe86d22b0] [0m[48;5;0m[38;5;196mbuffer underflow st=0 bufi=4948 size=10122
[0m[48;5;0m[38;5;213m[mpeg @ 0x7fffe86d22b0] [0m[48;5;0m[38;5;196mbuffer underflow st=0 bufi=6989 size=10122
[0m[48;5;0m[38;5;213m[mpeg @ 0x7fffe86d22b0] [0m[48;5;0m[38;5;196mbuffer underflow st=0 bufi=9030 size=10122
[0mpts:698400 pts_time:7.76 dts:694800 dts_time:7.72 duration:0 duration_time:0 stream_index:0
[48;5;0m[38;5;213m[mpeg @ 0x7fffe86d22b0] [0m[48;5;0m[38;5;196mbuffer underflow st=0 bufi=940 size=1501
[0mpts:702000 pts_time:7.8 dts:698400 dts_time:7.76 duration:0 duration_time:0 stream_index:0
[48;5;0m[38;5;213m[mpeg @ 0x7fffe86d22b0] [0m[48;5;0m[38;5;196mbuffer underflow st=0 bufi=1471 size=1911
[0mpts:705600 pts_time:7.84 dts:702000 dts_time:7.8 duration:0 duration_time:0 stream_index:0
[48;5;0m[38;5;213m[mpeg @ 0x7fffe86d22b0] [0m[48;5;0m[38;5;196mbuffer underflow st=0 bufi=1592 size=2287
[0mpts:709200 pts_time:7.88 dts:705600 dts_time:7.84 duration:0 duration_time:0 stream_index:0
[48;5;0m[38;5;213m[mpeg @ 0x7fffe86d22b0] [0m[48;5;0m[38;5;196mbuffer underflow st=0 bufi=1337 size=1741
[0mpts:712800 pts_time:7.92 dts:709200 dts_time:7.88 duration:0 duration_time:0 stream_index:0
pts:716400 pts_time:7.96 dts:712800 dts_time:7.92 duration:0 duration_time:0 stream_index:0
[48;5;0m[38;5;213m[mpeg @ 0x7fffe86d22b0] [0m[48;5;0m[38;5;196mbuffer underflow st=0 bufi=246 size=2509
[0m[48;5;0m[38;5;213m[mpeg @ 0x7fffe86d22b0] [0m[48;5;0m[38;5;196mbuffer underflow st=0 bufi=2287 size=2509
[0mpts:720000 pts_time:8 dts:716400 dts_time:7.96 duration:0 duration_time:0 stream_index:0
[48;5;0m[38;5;213m[mpeg @ 0x7fffe86d22b0] [0m[48;5;0m[38;5;196mbuffer underflow st=0 bufi=1810 size=1994
[0mpts:723600 pts_time:8.04 dts:720000 dts_time:8 duration:0 duration_time:0 stream_index:0
[48;5;0m[38;5;213m[mpeg @ 0x7fffe86d22b0] [0m[48;5;0m[38;5;196mbuffer underflow st=0 bufi=1848 size=2094
[0mpts:727200 pts_time:8.08 dts:723600 dts_time:8.04 duration:0 duration_time:0 stream_index:0
[48;5;0m[38;5;213m[mpeg @ 0x7fffe86d22b0] [0m[48;5;0m[38;5;196mbuffer underflow st=0 bufi=1786 size=2778
[0mpts:730800 pts_time:8.12 dts:727200 dts_time:8.08 duration:0 duration_time:0 stream_index:0
[48;5;0m[38;5;213m[mpeg @ 0x7fffe86d22b0] [0m[48;5;0m[38;5;196mbuffer underflow st=0 bufi=1040 size=1824
[0mpts:734400 pts_time:8.16 dts:730800 dts_time:8.12 duration:0 duration_time:0 stream_index:0
[48;5;0m[38;5;213m[mpeg @ 0x7fffe86d22b0] [0m[48;5;0m[38;5;196mbuffer underflow st=0 bufi=1248 size=2557
[0mpts:738000 pts_time:8.2 dts:734400 dts_time:8.16 duration:0 duration_time:0 stream_index:0
[48;5;0m[38;5;213m[mpeg @ 0x7fffe86d22b0] [0m[48;5;0m[38;5;196mbuffer underflow st=0 bufi=723 size=9992
[0m[48;5;0m[38;5;213m[mpeg @ 0x7fffe86d22b0] [0m[48;5;0m[38;5;196mbuffer underflow st=0 bufi=2764 size=9992
[0m[48;5;0m[38;5;213m[mpeg @ 0x7fffe86d22b0] [0m[48;5;0m[38;5;196mbuffer underflow st=0 bufi=4805 size=9992
[0m[48;5;0m[38;5;213m[mpeg @ 0x7fffe86d22b0] [0m[48;5;0m[38;5;196mbuffer underflow st=0 bufi=6846 size=9992
[0m[48;5;0m[38;5;213m[mpeg @ 0x7fffe86d22b0] [0m[48;5;0m[38;5;196mbuffer underflow st=0 bufi=8887 size=9992
[0mpts:741600 pts_time:8.24 dts:738000 dts_time:8.2 duration:0 duration_time:0 stream_index:0
[48;5;0m[38;5;213m[mpeg @ 0x7fffe86d22b0] [0m[48;5;0m[38;5;196mbuffer underflow st=0 bufi=927 size=2304
[0mpts:745200 pts_time:8.28 dts:741600 dts_time:8.24 duration:0 duration_time:0 stream_index:0
[48;5;0m[38;5;213m[mpeg @ 0x7fffe86d22b0] [0m[48;5;0m[38;5;196mbuffer underflow st=0 bufi=655 size=1908
[0mpts:748800 pts_time:8.32 dts:745200 dts_time:8.28 duration:0 duration_time:0 stream_index:0
[48;5;0m[38;5;213m[mpeg @ 0x7fffe86d22b0] [0m[48;5;0m[38;5;196mbuffer underflow st=0 bufi=779 size=2386
[0mpts:752400 pts_time:8.36 dts:748800 dts_time:8.32 duration:0 duration_time:0 stream_index:0
[48;5;0m[38;5;213m[mpeg @ 0x7fffe86d22b0] [0m[48;5;0m[38;5;196mbuffer underflow st=0 bufi=425 size=1786
[0mpts:756000 pts_time:8.4 dts:752400 dts_time:8.36 duration:0 duration_time:0 stream_index:0
[48;5;0m[38;5;213m[mpeg @ 0x7fffe86d22b0] [0m[48;5;0m[38;5;196mbuffer underflow st=0 bufi=671 size=1990
[0mpts:759600 pts_time:8.44 dts:756000 dts_time:8.4 duration:0 duration_time:0 stream_index:0
[48;5;0m[38;5;213m[mpeg @ 0x7fffe86d22b0] [0m[48;5;0m[38;5;196mbuffer underflow st=0 bufi=713 size=2827
[0m[48;5;0m[38;5;213m[mpeg @ 0x7fffe86d22b0] [0m[48;5;0m[38;5;196mbuffer underflow st=0 bufi=2754 size=2827
[0mpts:763200 pts_time:8.48 dts:759600 dts_time:8.44 duration:0 duration_time:0 stream_index:0
[48;5;0m[38;5;213m[mpeg @ 0x7fffe86d22b0] [0m[48;5;0m[38;5;196mbuffer underflow st=0 bufi=1959 size=2484
[0mpts:766800 pts_time:8.52 dts:763200 dts_time:8.48 duration:0 duration_time:0 stream_index:0
[48;5;0m[38;5;213m[mpeg @ 0x7fffe86d22b0] [0m[48;5;0m[38;5;196mbuffer underflow st=0 bufi=1507 size=2069
[0mpts:770400 pts_time:8.56 dts:766800 dts_time:8.52 duration:0 duration_time:0 stream_index:0
[48;5;0m[38;5;213m[mpeg @ 0x7fffe86d22b0] [0m[48;5;0m[38;5;196mbuffer underflow st=0 bufi=1470 size=1997
[0mpts:774000 pts_time:8.6 dts:770400 dts_time:8.56 duration:0 duration_time:0 stream_index:0
[48;5;0m[38;5;213m[mpeg @ 0x7fffe86d22b0] [0m[48;5;0m[38;5;196mbuffer underflow st=0 bufi=1505 size=2804
[0mpts:777600 pts_time:8.64 dts:774000 dts_time:8.6 duration:0 duration_time:0 stream_index:0
[48;5;0m[38;5;213m[mpeg @ 0x7fffe86d22b0] [0m[48;5;0m[38;5;196mbuffer underflow st=0 bufi=733 size=1578
[0mpts:781200 pts_time:8.68 dts:777600 dts_time:8.64 duration:0 duration_time:0 stream_index:0
[48;5;0m[38;5;213m[mpeg @ 0x7fffe86d22b0] [0m[48;5;0m[38;5;196mbuffer underflow st=0 bufi=1187 size=10449
[0m[48;5;0m[38;5;213m[mpeg @ 0x7fffe86d22b0] [0m[48;5;0m[38;5;196mbuffer underflow st=0 bufi=3228 size=10449
[0m[48;5;0m[38;5;213m[mpeg @ 0x7fffe86d22b0] [0m[48;5;0m[38;5;196mbuffer underflow st=0 bufi=5269 size=10449
[0m[48;5;0m[38;5;213m[mpeg @ 0x7fffe86d22b0] [0m[48;5;0m[38;5;196mbuffer underflow st=0 bufi=7310 size=10449
[0m[48;5;0m[38;5;213m[mpeg @ 0x7fffe86d22b0] [0m[48;5;0m[38;5;196mbuffer underflow st=0 bufi=9351 size=10449
[0mpts:784800 pts_time:8.72 dts:781200 dts_time:8.68 duration:0 duration_time:0 stream_index:0
[48;5;0m[38;5;213m[mpeg @ 0x7fffe86d22b0] [0m[48;5;0m[38;5;196mbuffer underflow st=0 bufi=934 size=1910
[0mpts:788400 pts_time:8.76 dts:784800 dts_time:8.72 duration:0 duration_time:0 stream_index:0
[48;5;0m[38;5;213m[mpeg @ 0x7fffe86d22b0] [0m[48;5;0m[38;5;196mbuffer underflow st=0 bufi=1056 size=2320
[0mpts:792000 pts_time:8.8 dts:788400 dts_time:8.76 duration:0 duration_time:0 stream_index:0
[48;5;0m[38;5;213m[mpeg @ 0x7fffe86d22b0] [0m[48;5;0m[38;5;196mbuffer underflow st=0 bufi=768 size=2483
[0mpts:795600 pts_time:8.84 dts:792000 dts_time:8.8 duration:0 duration_time:0 stream_index:0
[48;5;0m[38;5;213m[mpeg @ 0x7fffe86d22b0] [0m[48;5;0m[38;5;196mbuffer underflow st=0 bufi=317 size=2054
[0mpts:799200 pts_time:8.88 dts:795600 dts_time:8.84 duration:0 duration_time:0 stream_index:0
[48;5;0m[38;5;213m[mpeg @ 0x7fffe86d22b0] [0m[48;5;0m[38;5;196mbuffer underflow st=0 bufi=283 size=1734
[0mpts:802800 pts_time:8.92 dts:799200 dts_time:8.88 duration:0 duration_time:0 stream_index:0
[48;5;0m[38;5;213m[mpeg @ 0x7fffe86d22b0] [0m[48;5;0m[38;5;196mbuffer underflow st=0 bufi=581 size=2965
[0m[48;5;0m[38;5;213m[mpeg @ 0x7fffe86d22b0] [0m[48;5;0m[38;5;196mbuffer underflow st=0 bufi=2622 size=2965
[0mpts:806400 pts_time:8.96 dts:802800 dts_time:8.92 duration:0 duration_time:0 stream_index:0
[48;5;0m[38;5;213m[mpeg @ 0x7fffe86d22b0] [0m[48;5;0m[38;5;196mbuffer underflow st=0 bufi=1689 size=2266
[0mpts:810000 pts_time:9 dts:806400 dts_time:8.96 duration:0 duration_time:0 stream_index:0
[48;5;0m[38;5;213m[mpeg @ 0x7fffe86d22b0] [0m[48;5;0m[38;5;196mbuffer underflow st=0 bufi=1455 size=1747
[0mpts:813600 pts_time:9.04 dts:810000 dts_time:9 duration:0 duration_time:0 stream_index:0
[48;5;0m[38;5;213m[mpeg @ 0x7fffe86d22b0] [0m[48;5;0m[38;5;196mbuffer underflow st=0 bufi=1740 size=2035
[0mpts:817200 pts_time:9.08 dts:813600 dts_time:9.04 duration:0 duration_time:0 stream_index:0
[48;5;0m[38;5;213m[mpeg @ 0x7fffe86d22b0] [0m[48;5;0m[38;5;196mbuffer underflow st=0 bufi=1737 size=2587
[0mpts:820800 pts_time:9.12 dts:817200 dts_time:9.08 duration:0 duration_time:0 stream_index:0
[48;5;0m[38;5;213m[mpeg @ 0x7fffe86d22b0] [0m[48;5;0m[38;5;196mbuffer underflow st=0 bufi=1182 size=1894
[0mpts:824400 pts_time:9.16 dts:820800 dts_time:9.12 duration:0 duration_time:0 stream_index:0
[48;5;0m[38;5;213m[mpeg @ 0x7fffe86d22b0] [0m[48;5;0m[38;5;196mbuffer underflow st=0 bufi=1320 size=9924
[0m[48;5;0m[38;5;213m[mpeg @ 0x7fffe86d22b0] [0m[48;5;0m[38;5;196mbuffer underflow st=0 bufi=3361 size=9924
[0m[48;5;0m[38;5;213m[mpeg @ 0x7fffe86d22b0] [0m[48;5;0m[38;5;196mbuffer underflow st=0 bufi=5402 size=9924
[0m[48;5;0m[38;5;213m[mpeg @ 0x7fffe86d22b0] [0m[48;5;0m[38;5;196mbuffer underflow st=0 bufi=7443 size=9924
[0m[48;5;0m[38;5;213m[mpeg @ 0x7fffe86d22b0] [0m[48;5;0m[38;5;196mbuffer underflow st=0 bufi=9484 size=9924
[0mpts:828000 pts_time:9.2 dts:824400 dts_time:9.16 duration:0 duration_time:0 stream_index:0
[48;5;0m[38;5;213m[mpeg @ 0x7fffe86d22b0] [0m[48;5;0m[38;5;196mbuffer underflow st=0 bufi=1592 size=2303
[0mpts:831600 pts_time:9.24 dts:828000 dts_time:9.2 duration:0 duration_time:0 stream_index:0
[48;5;0m[38;5;213m[mpeg @ 0x7fffe86d22b0] [0m[48;5;0m[38;5;196mbuffer underflow st=0 bufi=1321 size=2263
[0mpts:835200 pts_time:9.28 dts:831600 dts_time:9.24 duration:0 duration_time:0 stream_index:0
[48;5;0m[38;5;213m[mpeg @ 0x7fffe86d22b0] [0m[48;5;0m[38;5;196mbuffer underflow st=0 bufi=1090 size=2569
[0mpts:838800 pts_time:9.32 dts:835200 dts_time:9.28 duration:0 duration_time:0 stream_index:0
[48;5;0m[38;5;213m[mpeg @ 0x7fffe86d22b0] [0m[48;5;0m[38;5;196mbuffer underflow st=0 bufi=553 size=2049
[0mpts:842400 pts_time:9.36 dts:838800 dts_time:9.32 duration:0 duration_time:0 stream_index:0
[48;5;0m[38;5;213m[mpeg @ 0x7fffe86d22b0] [0m[48;5;0m[38;5;196mbuffer underflow st=0 bufi=536 size=2533
[0mpts:846000 pts_time:9.4 dts:842400 dts_time:9.36 duration:0 duration_time:0 stream_index:0
[48;5;0m[38;5;213m[mpeg @ 0x7fffe86d22b0] [0m[48;5;0m[38;5;196mbuffer underflow st=0 bufi=35 size=3140
[0m[48;5;0m[38;5;213m[mpeg @ 0x7fffe86d22b0] [0m[48;5;0m[38;5;196mbuffer underflow st=0 bufi=2076 size=3140
[0mpts:849600 pts_time:9.44 dts:846000 dts_time:9.4 duration:0 duration_time:0 stream_index:0
[48;5;0m[38;5;213m[mpeg @ 0x7fffe86d22b0] [0m[48;5;0m[38;5;196mbuffer underflow st=0 bufi=968 size=3154
[0m[48;5;0m[38;5;213m[mpeg @ 0x7fffe86d22b0] [0m[48;5;0m[38;5;196mbuffer underflow st=0 bufi=3009 size=3154
[0mpts:853200 pts_time:9.48 dts:849600 dts_time:9.44 duration:0 duration_time:0 stream_index:0
[48;5;0m[38;5;213m[mpeg @ 0x7fffe86d22b0] [0m[48;5;0m[38;5;196mbuffer underflow st=0 bufi=1887 size=2513
[0mpts:856800 pts_time:9.52 dts:853200 dts_time:9.48 duration:0 duration_time:0 stream_index:0
[48;5;0m[38;5;213m[mpeg @ 0x7fffe86d22b0] [0m[48;5;0m[38;5;196mbuffer underflow st=0 bufi=1406 size=2868
[0mpts:860400 pts_time:9.56 dts:856800 dts_time:9.52 duration:0 duration_time:0 stream_index:0
[48;5;0m[38;5;213m[mpeg @ 0x7fffe86d22b0] [0m[48;5;0m[38;5;196mbuffer underflow st=0 bufi=570 size=2589
[0mpts:864000 pts_time:9.6 dts:860400 dts_time:9.56 duration:0 duration_time:0 stream_index:0
[48;5;0m[38;5;213m[mpeg @ 0x7fffe86d22b0] [0m[48;5;0m[38;5;196mbuffer underflow st=0 bufi=13 size=1700
[0mpts:867600 pts_time:9.64 dts:864000 dts_time:9.6 duration:0 duration_time:0 stream_index:0
[48;5;0m[38;5;213m[mpeg @ 0x7fffe86d22b0] [0m[48;5;0m[38;5;196mbuffer underflow st=0 bufi=345 size=10753
[0m[48;5;0m[38;5;213m[mpeg @ 0x7fffe86d22b0] [0m[48;5;0m[38;5;196mbuffer underflow st=0 bufi=2386 size=10753
[0m[48;5;0m[38;5;213m[mpeg @ 0x7fffe86d22b0] [0m[48;5;0m[38;5;196mbuffer underflow st=0 bufi=4427 size=10753
[0m[48;5;0m[38;5;213m[mpeg @ 0x7fffe86d22b0] [0m[48;5;0m[38;5;196mbuffer underflow st=0 bufi=6468 size=10753
[0m[48;5;0m[38;5;213m[mpeg @ 0x7fffe86d22b0] [0m[48;5;0m[38;5;196mbuffer underflow st=0 bufi=8509 size=10753
[0m[48;5;0m[38;5;213m[mpeg @ 0x7fffe86d22b0] [0m[48;5;0m[38;5;196mbuffer underflow st=0 bufi=10550 size=10753
[0mpts:871200 pts_time:9.68 dts:867600 dts_time:9.64 duration:0 duration_time:0 stream_index:0
[48;5;0m[38;5;213m[mpeg @ 0x7fffe86d22b0] [0m[48;5;0m[38;5;196mbuffer underflow st=0 bufi=1829 size=2466
[0mpts:874800 pts_time:9.72 dts:871200 dts_time:9.68 duration:0 duration_time:0 stream_index:0
[48;5;0m[38;5;213m[mpeg @ 0x7fffe86d22b0] [0m[48;5;0m[38;5;196mbuffer underflow st=0 bufi=1395 size=2664
[0mpts:878400 pts_time:9.76 dts:874800 dts_time:9.72 duration:0 duration_time:0 stream_index:0
[48;5;0m[38;5;213m[mpeg @ 0x7fffe86d22b0] [0m[48;5;0m[38;5;196mbuffer underflow st=0 bufi=763 size=2452
[0mpts:882000 pts_time:9.8 dts:878400 dts_time:9.76 duration:0 duration_time:0 stream_index:0
[48;5;0m[38;5;213m[mpeg @ 0x7fffe86d22b0] [0m[48;5;0m[38;5;196mbuffer underflow st=0 bufi=343 size=2121
[0mpts:885600 pts_time:9.84 dts:882000 dts_time:9.8 duration:0 duration_time:0 stream_index:0
[48;5;0m[38;5;213m[mpeg @ 0x7fffe86d22b0] [0m[48;5;0m[38;5;196mbuffer underflow st=0 bufi=254 size=1828
[0mpts:889200 pts_time:9.88 dts:885600 dts_time:9.84 duration:0 duration_time:0 stream_index:0
[48;5;0m[38;5;213m[mpeg @ 0x7fffe86d22b0] [0m[48;5;0m[38;5;196mbuffer underflow st=0 bufi=458 size=2830
[0m[48;5;0m[38;5;213m[mpeg @ 0x7fffe86d22b0] [0m[48;5;0m[38;5;196mbuffer underflow st=0 bufi=2499 size=2830
[0mpts:892800 pts_time:9.92 dts:889200 dts_time:9.88 duration:0 duration_time:0 stream_index:0
[48;5;0m[38;5;213m[mpeg @ 0x7fffe86d22b0] [0m[48;5;0m[38;5;196mbuffer underflow st=0 bufi=1701 size=2288
[0mpts:896400 pts_time:9.96 dts:892800 dts_time:9.92 duration:0 duration_time:0 stream_index:0
[48;5;0m[38;5;213m[mpeg @ 0x7fffe86d22b0] [0m[48;5;0m[38;5;196mbuffer underflow st=0 bufi=1445 size=1823
[0mpts:900000 pts_time:10 dts:896400 dts_time:9.96 duration:0 duration_time:0 stream_index:0
[48;5;0m[38;5;213m[mpeg @ 0x7fffe86d22b0] [0m[48;5;0m[38;5;196mbuffer underflow st=0 bufi=1654 size=2029
[0m